# MagicaVoxel @ Ephtracy

# group
o 

# material
mtllib Box_Long.mtl
usemtl palette

# normals
vn -1 0 0
vn 1 0 0
vn 0 0 1
vn 0 0 -1
vn 0 -1 0
vn 0 1 0

# texcoords
vt 0.744141 0.5
vt 0.748047 0.5
vt 0.759766 0.5

# verts
v 1.1 3.6 1
v 1.1 3.6 0.9
v 1.1 3.6 0
v 1.1 3.6 -0.3
v 1.1 3.6 -2
v 1.1 3.7 1
v 1.1 3.7 0.9
v 1.1 3.7 0
v 1.1 3.7 -0.3
v 1.1 3.7 -0.7
v 1.1 3.7 -1.1
v 1.1 3.7 -1.8
v 1.1 3.7 -2
v 1.1 3.8 1
v 1.1 3.8 -0.7
v 1.1 3.8 -1.1
v 1.1 3.8 -1.8
v 1.1 3.8 -2
v 1.1 3.9 1
v 1.1 3.9 0.5
v 1.1 3.9 0
v 1.1 3.9 -1.8
v 1.1 3.9 -2
v 1.1 4 1
v 1.1 4 0.5
v 1.1 4 0
v 1.1 4 -1.8
v 1.1 4 -2
v 2 3.6 1
v 2 3.6 0.3
v 2 3.6 -0.1
v 2 3.6 -2
v 2 3.7 1
v 2 3.7 0.9
v 2 3.7 0.3
v 2 3.7 -0.1
v 2 3.7 -1
v 2 3.7 -1.5
v 2 3.8 1
v 2 3.8 0.9
v 2 3.8 -1
v 2 3.8 -1.5
v 2 3.8 -2
v 2 3.9 1
v 2 3.9 -2
v 2 4 1
v 2 4 -2
v 1.1 3.6 1
v 1.1 3.7 1
v 1.1 3.8 1
v 1.1 3.9 1
v 1.1 4 1
v 1.4 3.6 1
v 1.4 3.7 1
v 1.4 3.9 1
v 1.4 4 1
v 1.7 3.9 1
v 1.7 4 1
v 1.8 3.7 1
v 1.8 3.8 1
v 2 3.6 1
v 2 3.7 1
v 2 3.8 1
v 2 3.9 1
v 2 4 1
v 1.1 3.6 -2
v 1.1 3.7 -2
v 1.1 3.8 -2
v 1.1 3.9 -2
v 1.1 4 -2
v 1.2 3.9 -2
v 1.2 4 -2
v 1.3 3.7 -2
v 1.3 3.8 -2
v 1.4 3.6 -2
v 1.4 3.7 -2
v 1.4 3.9 -2
v 1.4 4 -2
v 1.7 3.9 -2
v 1.7 4 -2
v 1.8 3.6 -2
v 1.8 3.7 -2
v 1.8 3.9 -2
v 1.8 4 -2
v 2 3.6 -2
v 2 3.8 -2
v 2 3.9 -2
v 2 4 -2
v 1.1 3.6 1
v 1.4 3.6 1
v 2 3.6 1
v 1.1 3.6 0.9
v 1.4 3.6 0.9
v 1.9 3.6 0.3
v 2 3.6 0.3
v 1.1 3.6 0
v 1.2 3.6 0
v 1.9 3.6 -0.1
v 2 3.6 -0.1
v 1.1 3.6 -0.3
v 1.2 3.6 -0.3
v 1.4 3.6 -1.9
v 1.8 3.6 -1.9
v 1.1 3.6 -2
v 1.4 3.6 -2
v 1.8 3.6 -2
v 2 3.6 -2
v 1.1 4 1
v 1.4 4 1
v 1.7 4 1
v 2 4 1
v 1.7 4 0.7
v 1.8 4 0.7
v 1.1 4 0.5
v 1.2 4 0.5
v 1.7 4 0.3
v 1.8 4 0.3
v 1.1 4 0
v 1.2 4 0
v 1.8 4 -0.6
v 1.9 4 -0.6
v 1.8 4 -1
v 1.9 4 -1
v 1.2 4 -1.2
v 1.3 4 -1.2
v 1.2 4 -1.5
v 1.3 4 -1.5
v 1.1 4 -1.8
v 1.2 4 -1.8
v 1.7 4 -1.8
v 1.8 4 -1.8
v 1.1 4 -2
v 1.2 4 -2
v 1.4 4 -2
v 1.7 4 -2
v 1.8 4 -2
v 2 4 -2

# faces
f 6/3/1 2/3/1 1/3/1
f 7/1/1 3/1/1 2/1/1
f 7/3/1 2/3/1 6/3/1
f 8/3/1 4/3/1 3/3/1
f 8/1/1 3/1/1 7/1/1
f 9/1/1 5/1/1 4/1/1
f 9/3/1 4/3/1 8/3/1
f 10/1/1 5/1/1 9/1/1
f 11/1/1 5/1/1 10/1/1
f 12/1/1 5/1/1 11/1/1
f 13/1/1 5/1/1 12/1/1
f 14/1/1 8/1/1 7/1/1
f 14/1/1 7/1/1 6/1/1
f 14/1/1 9/1/1 8/1/1
f 14/1/1 10/1/1 9/1/1
f 15/3/1 11/3/1 10/3/1
f 15/1/1 10/1/1 14/1/1
f 16/1/1 12/1/1 11/1/1
f 16/3/1 11/3/1 15/3/1
f 17/3/1 13/3/1 12/3/1
f 17/1/1 12/1/1 16/1/1
f 18/3/1 13/3/1 17/3/1
f 19/2/1 16/2/1 15/2/1
f 19/2/1 15/2/1 14/2/1
f 19/2/1 18/2/1 17/2/1
f 19/2/1 17/2/1 16/2/1
f 20/2/1 18/2/1 19/2/1
f 21/2/1 18/2/1 20/2/1
f 22/2/1 18/2/1 21/2/1
f 23/2/1 18/2/1 22/2/1
f 24/1/1 20/1/1 19/1/1
f 25/3/1 21/3/1 20/3/1
f 25/1/1 20/1/1 24/1/1
f 26/1/1 22/1/1 21/1/1
f 26/3/1 21/3/1 25/3/1
f 27/3/1 23/3/1 22/3/1
f 27/1/1 22/1/1 26/1/1
f 28/3/1 23/3/1 27/3/1
f 29/1/2 30/1/2 33/1/2
f 33/1/2 30/1/2 34/1/2
f 30/3/2 31/3/2 35/3/2
f 34/1/2 30/1/2 35/1/2
f 31/1/2 32/1/2 36/1/2
f 35/3/2 31/3/2 36/3/2
f 36/1/2 32/1/2 37/1/2
f 37/1/2 32/1/2 38/1/2
f 33/3/2 34/3/2 39/3/2
f 34/1/2 35/1/2 40/1/2
f 39/3/2 34/3/2 40/3/2
f 35/1/2 36/1/2 40/1/2
f 36/1/2 37/1/2 40/1/2
f 37/3/2 38/3/2 41/3/2
f 40/1/2 37/1/2 41/1/2
f 38/1/2 32/1/2 42/1/2
f 41/3/2 38/3/2 42/3/2
f 42/1/2 32/1/2 43/1/2
f 40/2/2 41/2/2 44/2/2
f 39/2/2 40/2/2 44/2/2
f 42/2/2 43/2/2 44/2/2
f 41/2/2 42/2/2 44/2/2
f 44/2/2 43/2/2 45/2/2
f 44/1/2 45/1/2 46/1/2
f 46/1/2 45/1/2 47/1/2
f 53/3/3 49/3/3 48/3/3
f 54/1/3 50/1/3 49/1/3
f 54/3/3 49/3/3 53/3/3
f 55/1/3 52/1/3 51/1/3
f 55/2/3 51/2/3 50/2/3
f 56/1/3 52/1/3 55/1/3
f 57/2/3 55/2/3 50/2/3
f 57/2/3 56/2/3 55/2/3
f 58/2/3 56/2/3 57/2/3
f 59/1/3 50/1/3 54/1/3
f 59/1/3 54/1/3 53/1/3
f 60/2/3 57/2/3 50/2/3
f 60/1/3 50/1/3 59/1/3
f 61/1/3 59/1/3 53/1/3
f 62/3/3 60/3/3 59/3/3
f 62/1/3 59/1/3 61/1/3
f 63/2/3 57/2/3 60/2/3
f 63/3/3 60/3/3 62/3/3
f 64/1/3 58/1/3 57/1/3
f 64/2/3 57/2/3 63/2/3
f 65/1/3 58/1/3 64/1/3
f 68/2/4 69/2/4 71/2/4
f 69/3/4 70/3/4 71/3/4
f 71/3/4 70/3/4 72/3/4
f 66/1/4 67/1/4 73/1/4
f 67/3/4 68/3/4 73/3/4
f 68/2/4 71/2/4 74/2/4
f 73/3/4 68/3/4 74/3/4
f 66/1/4 73/1/4 75/1/4
f 73/1/4 74/1/4 75/1/4
f 75/1/4 74/1/4 76/1/4
f 71/1/4 72/1/4 77/1/4
f 74/2/4 71/2/4 77/2/4
f 77/1/4 72/1/4 78/1/4
f 74/2/4 77/2/4 79/2/4
f 77/2/4 78/2/4 79/2/4
f 79/2/4 78/2/4 80/2/4
f 75/3/4 76/3/4 81/3/4
f 76/1/4 74/1/4 82/1/4
f 81/3/4 76/3/4 82/3/4
f 74/2/4 79/2/4 83/2/4
f 79/3/4 80/3/4 83/3/4
f 83/3/4 80/3/4 84/3/4
f 81/1/4 82/1/4 85/1/4
f 82/1/4 74/1/4 86/1/4
f 85/1/4 82/1/4 86/1/4
f 74/2/4 83/2/4 86/2/4
f 83/1/4 84/1/4 87/1/4
f 86/2/4 83/2/4 87/2/4
f 87/1/4 84/1/4 88/1/4
f 92/3/5 90/3/5 89/3/5
f 93/1/5 91/1/5 90/1/5
f 93/3/5 90/3/5 92/3/5
f 94/1/5 93/1/5 92/1/5
f 94/1/5 91/1/5 93/1/5
f 95/1/5 91/1/5 94/1/5
f 96/1/5 94/1/5 92/1/5
f 97/1/5 94/1/5 96/1/5
f 98/3/5 95/3/5 94/3/5
f 98/1/5 94/1/5 97/1/5
f 99/3/5 95/3/5 98/3/5
f 100/3/5 97/3/5 96/3/5
f 101/1/5 98/1/5 97/1/5
f 101/3/5 97/3/5 100/3/5
f 101/1/5 99/1/5 98/1/5
f 102/1/5 101/1/5 100/1/5
f 102/1/5 99/1/5 101/1/5
f 103/1/5 99/1/5 102/1/5
f 104/1/5 102/1/5 100/1/5
f 105/3/5 103/3/5 102/3/5
f 105/1/5 102/1/5 104/1/5
f 106/1/5 99/1/5 103/1/5
f 106/3/5 103/3/5 105/3/5
f 107/1/5 99/1/5 106/1/5
f 109/2/6 110/2/6 112/2/6
f 110/1/6 111/1/6 112/1/6
f 112/1/6 111/1/6 113/1/6
f 108/1/6 109/1/6 114/1/6
f 114/1/6 109/1/6 115/1/6
f 109/2/6 112/2/6 116/2/6
f 112/3/6 113/3/6 116/3/6
f 113/1/6 111/1/6 117/1/6
f 116/3/6 113/3/6 117/3/6
f 114/3/6 115/3/6 118/3/6
f 115/1/6 109/1/6 119/1/6
f 118/3/6 115/3/6 119/3/6
f 117/1/6 111/1/6 120/1/6
f 116/1/6 117/1/6 120/1/6
f 120/1/6 111/1/6 121/1/6
f 116/1/6 120/1/6 122/1/6
f 120/3/6 121/3/6 122/3/6
f 121/1/6 111/1/6 123/1/6
f 122/3/6 121/3/6 123/3/6
f 119/1/6 109/1/6 124/1/6
f 118/1/6 119/1/6 124/1/6
f 124/1/6 109/1/6 125/1/6
f 118/1/6 124/1/6 126/1/6
f 124/3/6 125/3/6 126/3/6
f 125/1/6 109/1/6 127/1/6
f 126/3/6 125/3/6 127/3/6
f 118/1/6 126/1/6 128/1/6
f 126/1/6 127/1/6 128/1/6
f 128/1/6 127/1/6 129/1/6
f 109/2/6 116/2/6 130/2/6
f 122/1/6 123/1/6 130/1/6
f 116/1/6 122/1/6 130/1/6
f 130/1/6 123/1/6 131/1/6
f 128/3/6 129/3/6 132/3/6
f 129/1/6 127/1/6 133/1/6
f 132/3/6 129/3/6 133/3/6
f 127/1/6 109/1/6 134/1/6
f 133/1/6 127/1/6 134/1/6
f 109/2/6 130/2/6 134/2/6
f 130/3/6 131/3/6 135/3/6
f 134/2/6 130/2/6 135/2/6
f 131/1/6 123/1/6 136/1/6
f 135/3/6 131/3/6 136/3/6
f 123/1/6 111/1/6 137/1/6
f 136/1/6 123/1/6 137/1/6
