# MagicaVoxel @ Ephtracy

# group
o 

# material
mtllib Box_Small.mtl
usemtl palette

# normals
vn -1 0 0
vn 1 0 0
vn 0 0 1
vn 0 0 -1
vn 0 -1 0
vn 0 1 0

# texcoords
vt 0.744141 0.5
vt 0.748047 0.5
vt 0.759766 0.5

# verts
v 0.5 2.8 0
v 0.5 2.8 -2
v 0.5 2.9 0
v 0.5 2.9 -0.8
v 0.5 3 0
v 0.5 3 -0.8
v 0.5 3 -1.4
v 0.5 3 -1.6
v 0.5 3.1 -1.4
v 0.5 3.1 -1.6
v 0.5 3.4 -0.5
v 0.5 3.4 -1.1
v 0.5 3.5 -0.5
v 0.5 3.5 -1.1
v 0.5 3.6 0
v 0.5 3.6 -2
v 0.5 3.8 0
v 0.5 3.8 -0.9
v 0.5 3.8 -1.1
v 0.5 3.8 -2
v 0.5 4 0
v 0.5 4 -0.9
v 0.5 4 -1.1
v 0.5 4 -2
v 2 2.8 0
v 2 2.8 -2
v 2 3.1 0
v 2 3.1 -0.6
v 2 3.1 -1.8
v 2 3.1 -2
v 2 3.2 0
v 2 3.2 -0.6
v 2 3.2 -1.8
v 2 3.2 -2
v 2 3.4 -1.3
v 2 3.4 -1.7
v 2 3.5 -1.3
v 2 3.5 -1.7
v 2 3.6 0
v 2 3.6 -2
v 2 3.8 0
v 2 3.8 -0.9
v 2 3.8 -1.1
v 2 3.8 -2
v 2 3.9 0
v 2 3.9 -0.1
v 2 4 0
v 2 4 -0.1
v 2 4 -0.9
v 2 4 -1.1
v 2 4 -2
v 0.5 2.8 0
v 0.5 2.9 0
v 0.5 3 0
v 0.5 3.6 0
v 0.5 3.8 0
v 0.5 4 0
v 0.6 2.9 0
v 0.6 3 0
v 0.6 3.9 0
v 0.6 4 0
v 0.8 3.3 0
v 0.8 3.4 0
v 1.1 3.9 0
v 1.1 4 0
v 1.2 3.3 0
v 1.2 3.4 0
v 1.7 3.9 0
v 1.7 4 0
v 1.9 3.1 0
v 1.9 3.2 0
v 2 2.8 0
v 2 3.1 0
v 2 3.2 0
v 2 3.6 0
v 2 3.8 0
v 2 3.9 0
v 2 4 0
v 0.5 2.8 -2
v 0.5 3.6 -2
v 0.5 3.8 -2
v 0.5 4 -2
v 0.7 3.3 -2
v 0.7 3.4 -2
v 1 3.9 -2
v 1 4 -2
v 1.1 3.3 -2
v 1.1 3.4 -2
v 1.3 3.9 -2
v 1.3 4 -2
v 1.5 3.5 -2
v 1.5 3.6 -2
v 1.8 3.1 -2
v 1.8 3.2 -2
v 1.8 3.5 -2
v 1.8 3.6 -2
v 2 2.8 -2
v 2 3.1 -2
v 2 3.2 -2
v 2 3.6 -2
v 2 3.8 -2
v 2 4 -2
v 0.5 2.8 0
v 2 2.8 0
v 0.5 2.8 -2
v 2 2.8 -2
v 0.5 4 0
v 0.6 4 0
v 1.1 4 0
v 1.7 4 0
v 2 4 0
v 0.6 4 -0.1
v 1.1 4 -0.1
v 1.7 4 -0.1
v 2 4 -0.1
v 0.6 4 -0.5
v 1.2 4 -0.5
v 0.6 4 -0.6
v 1.2 4 -0.6
v 1.5 4 -0.7
v 1.9 4 -0.7
v 1.5 4 -0.8
v 1.9 4 -0.8
v 0.5 4 -0.9
v 2 4 -0.9
v 0.5 4 -1.1
v 2 4 -1.1
v 1.1 4 -1.3
v 1.5 4 -1.3
v 1.1 4 -1.4
v 1.5 4 -1.4
v 1.5 4 -1.7
v 1.8 4 -1.7
v 1.5 4 -1.8
v 1.8 4 -1.8
v 1 4 -1.9
v 1.3 4 -1.9
v 0.5 4 -2
v 1 4 -2
v 1.3 4 -2
v 2 4 -2

# faces
f 3/1/1 2/1/1 1/1/1
f 4/1/1 2/1/1 3/1/1
f 5/3/1 4/3/1 3/3/1
f 6/1/1 2/1/1 4/1/1
f 6/3/1 4/3/1 5/3/1
f 7/1/1 2/1/1 6/1/1
f 8/1/1 2/1/1 7/1/1
f 9/1/1 6/1/1 5/1/1
f 9/1/1 7/1/1 6/1/1
f 9/3/1 8/3/1 7/3/1
f 10/1/1 2/1/1 8/1/1
f 10/3/1 8/3/1 9/3/1
f 11/1/1 9/1/1 5/1/1
f 11/1/1 10/1/1 9/1/1
f 12/1/1 10/1/1 11/1/1
f 13/1/1 11/1/1 5/1/1
f 13/3/1 12/3/1 11/3/1
f 14/1/1 10/1/1 12/1/1
f 14/3/1 12/3/1 13/3/1
f 15/1/1 13/1/1 5/1/1
f 15/1/1 14/1/1 13/1/1
f 16/1/1 2/1/1 10/1/1
f 16/1/1 14/1/1 15/1/1
f 16/1/1 10/1/1 14/1/1
f 17/2/1 16/2/1 15/2/1
f 18/2/1 16/2/1 17/2/1
f 19/2/1 16/2/1 18/2/1
f 20/2/1 16/2/1 19/2/1
f 21/1/1 18/1/1 17/1/1
f 22/2/1 19/2/1 18/2/1
f 22/1/1 18/1/1 21/1/1
f 23/1/1 20/1/1 19/1/1
f 23/2/1 19/2/1 22/2/1
f 24/1/1 20/1/1 23/1/1
f 25/1/2 26/1/2 27/1/2
f 27/1/2 26/1/2 28/1/2
f 28/1/2 26/1/2 29/1/2
f 29/1/2 26/1/2 30/1/2
f 27/3/2 28/3/2 31/3/2
f 28/1/2 29/1/2 32/1/2
f 31/3/2 28/3/2 32/3/2
f 29/3/2 30/3/2 33/3/2
f 32/1/2 29/1/2 33/1/2
f 33/3/2 30/3/2 34/3/2
f 31/1/2 32/1/2 35/1/2
f 32/1/2 33/1/2 35/1/2
f 33/1/2 34/1/2 35/1/2
f 35/1/2 34/1/2 36/1/2
f 31/1/2 35/1/2 37/1/2
f 35/3/2 36/3/2 37/3/2
f 36/1/2 34/1/2 38/1/2
f 37/3/2 36/3/2 38/3/2
f 31/1/2 37/1/2 39/1/2
f 37/1/2 38/1/2 39/1/2
f 38/1/2 34/1/2 40/1/2
f 39/1/2 38/1/2 40/1/2
f 39/2/2 40/2/2 41/2/2
f 41/2/2 40/2/2 42/2/2
f 42/2/2 40/2/2 43/2/2
f 43/2/2 40/2/2 44/2/2
f 41/1/2 42/1/2 45/1/2
f 45/1/2 42/1/2 46/1/2
f 45/3/2 46/3/2 47/3/2
f 46/1/2 42/1/2 48/1/2
f 47/3/2 46/3/2 48/3/2
f 42/2/2 43/2/2 49/2/2
f 48/1/2 42/1/2 49/1/2
f 43/1/2 44/1/2 50/1/2
f 49/2/2 43/2/2 50/2/2
f 50/1/2 44/1/2 51/1/2
f 58/1/3 53/1/3 52/1/3
f 58/3/3 54/3/3 53/3/3
f 59/1/3 55/1/3 54/1/3
f 59/3/3 54/3/3 58/3/3
f 60/1/3 57/1/3 56/1/3
f 61/1/3 57/1/3 60/1/3
f 62/1/3 55/1/3 59/1/3
f 62/1/3 59/1/3 58/1/3
f 63/1/3 55/1/3 62/1/3
f 64/3/3 61/3/3 60/3/3
f 64/1/3 60/1/3 56/1/3
f 65/3/3 61/3/3 64/3/3
f 66/3/3 63/3/3 62/3/3
f 66/1/3 62/1/3 58/1/3
f 67/1/3 55/1/3 63/1/3
f 67/3/3 63/3/3 66/3/3
f 68/1/3 65/1/3 64/1/3
f 68/1/3 64/1/3 56/1/3
f 69/1/3 65/1/3 68/1/3
f 70/1/3 66/1/3 58/1/3
f 70/1/3 67/1/3 66/1/3
f 71/1/3 67/1/3 70/1/3
f 72/1/3 58/1/3 52/1/3
f 72/1/3 70/1/3 58/1/3
f 73/3/3 71/3/3 70/3/3
f 73/1/3 70/1/3 72/1/3
f 74/1/3 67/1/3 71/1/3
f 74/3/3 71/3/3 73/3/3
f 75/2/3 56/2/3 55/2/3
f 75/1/3 67/1/3 74/1/3
f 75/1/3 55/1/3 67/1/3
f 76/1/3 68/1/3 56/1/3
f 76/2/3 56/2/3 75/2/3
f 77/3/3 69/3/3 68/3/3
f 77/1/3 68/1/3 76/1/3
f 78/3/3 69/3/3 77/3/3
f 79/1/4 80/1/4 83/1/4
f 83/1/4 80/1/4 84/1/4
f 81/1/4 82/1/4 85/1/4
f 85/1/4 82/1/4 86/1/4
f 79/1/4 83/1/4 87/1/4
f 83/3/4 84/3/4 87/3/4
f 84/1/4 80/1/4 88/1/4
f 87/3/4 84/3/4 88/3/4
f 85/3/4 86/3/4 89/3/4
f 81/1/4 85/1/4 89/1/4
f 89/3/4 86/3/4 90/3/4
f 88/1/4 80/1/4 91/1/4
f 87/1/4 88/1/4 91/1/4
f 80/2/4 81/2/4 92/2/4
f 91/1/4 80/1/4 92/1/4
f 79/1/4 87/1/4 93/1/4
f 87/1/4 91/1/4 93/1/4
f 93/1/4 91/1/4 94/1/4
f 91/3/4 92/3/4 95/3/4
f 94/1/4 91/1/4 95/1/4
f 92/2/4 81/2/4 96/2/4
f 95/3/4 92/3/4 96/3/4
f 79/1/4 93/1/4 97/1/4
f 93/3/4 94/3/4 98/3/4
f 97/1/4 93/1/4 98/1/4
f 94/1/4 95/1/4 99/1/4
f 98/3/4 94/3/4 99/3/4
f 95/1/4 96/1/4 99/1/4
f 96/2/4 81/2/4 100/2/4
f 99/1/4 96/1/4 100/1/4
f 89/1/4 90/1/4 101/1/4
f 100/2/4 81/2/4 101/2/4
f 81/1/4 89/1/4 101/1/4
f 101/1/4 90/1/4 102/1/4
f 105/1/5 104/1/5 103/1/5
f 106/1/5 104/1/5 105/1/5
f 107/1/6 108/1/6 112/1/6
f 108/3/6 109/3/6 112/3/6
f 109/1/6 110/1/6 113/1/6
f 112/3/6 109/3/6 113/3/6
f 110/3/6 111/3/6 114/3/6
f 113/1/6 110/1/6 114/1/6
f 114/3/6 111/3/6 115/3/6
f 112/1/6 113/1/6 116/1/6
f 107/1/6 112/1/6 116/1/6
f 114/1/6 115/1/6 116/1/6
f 113/1/6 114/1/6 116/1/6
f 116/1/6 115/1/6 117/1/6
f 107/1/6 116/1/6 118/1/6
f 116/3/6 117/3/6 118/3/6
f 117/1/6 115/1/6 119/1/6
f 118/3/6 117/3/6 119/3/6
f 118/1/6 119/1/6 120/1/6
f 119/1/6 115/1/6 120/1/6
f 120/1/6 115/1/6 121/1/6
f 118/1/6 120/1/6 122/1/6
f 120/3/6 121/3/6 122/3/6
f 121/1/6 115/1/6 123/1/6
f 122/3/6 121/3/6 123/3/6
f 107/1/6 118/1/6 124/1/6
f 118/1/6 122/1/6 124/1/6
f 122/1/6 123/1/6 124/1/6
f 123/1/6 115/1/6 125/1/6
f 124/1/6 123/1/6 125/1/6
f 124/2/6 125/2/6 126/2/6
f 126/2/6 125/2/6 127/2/6
f 126/1/6 127/1/6 128/1/6
f 128/1/6 127/1/6 129/1/6
f 126/1/6 128/1/6 130/1/6
f 128/3/6 129/3/6 130/3/6
f 129/1/6 127/1/6 131/1/6
f 130/3/6 129/3/6 131/3/6
f 130/1/6 131/1/6 132/1/6
f 131/1/6 127/1/6 132/1/6
f 132/1/6 127/1/6 133/1/6
f 130/1/6 132/1/6 134/1/6
f 132/3/6 133/3/6 134/3/6
f 133/1/6 127/1/6 135/1/6
f 134/3/6 133/3/6 135/3/6
f 126/1/6 130/1/6 136/1/6
f 130/1/6 134/1/6 136/1/6
f 134/1/6 135/1/6 136/1/6
f 136/1/6 135/1/6 137/1/6
f 126/1/6 136/1/6 138/1/6
f 136/3/6 137/3/6 139/3/6
f 138/1/6 136/1/6 139/1/6
f 137/1/6 135/1/6 140/1/6
f 139/3/6 137/3/6 140/3/6
f 135/1/6 127/1/6 141/1/6
f 140/1/6 135/1/6 141/1/6
