# MagicaVoxel @ Ephtracy

# group
o 

# material
mtllib Box_Big.mtl
usemtl palette

# normals
vn -1 0 0
vn 1 0 0
vn 0 0 1
vn 0 0 -1
vn 0 -1 0
vn 0 1 0

# texcoords
vt 0.744141 0.5
vt 0.748047 0.5
vt 0.759766 0.5

# verts
v -0.5 2.1 -0.2
v -0.5 2.1 -2
v -0.5 2.3 -0.2
v -0.5 2.3 -0.6
v -0.5 2.3 -1.4
v -0.5 2.3 -2
v -0.5 2.4 -0.2
v -0.5 2.4 -0.6
v -0.5 2.4 -1.4
v -0.5 2.4 -2
v -0.5 2.8 -0.7
v -0.5 2.8 -1
v -0.5 2.9 -0.7
v -0.5 2.9 -1
v -0.5 3 -0.9
v -0.5 3 -1.6
v -0.5 3.1 -0.9
v -0.5 3.1 -1.6
v -0.5 3.3 -0.3
v -0.5 3.3 -0.5
v -0.5 3.4 -0.3
v -0.5 3.4 -0.5
v -0.5 3.5 -0.2
v -0.5 3.5 -2
v -0.5 3.7 -0.2
v -0.5 3.7 -1
v -0.5 3.7 -1.3
v -0.5 3.7 -2
v -0.5 3.8 -1.4
v -0.5 3.8 -1.7
v -0.5 3.9 -1.4
v -0.5 3.9 -1.7
v -0.5 4 -0.2
v -0.5 4 -1
v -0.5 4 -1.3
v -0.5 4 -2
v 2 2.1 -0.2
v 2 2.1 -2
v 2 2.3 -0.7
v 2 2.3 -1.4
v 2 2.4 -0.7
v 2 2.4 -1.4
v 2 2.9 -0.5
v 2 2.9 -0.9
v 2 3 -0.5
v 2 3 -0.9
v 2 3.1 -1.4
v 2 3.1 -2
v 2 3.2 -1.4
v 2 3.2 -2
v 2 3.5 -0.2
v 2 3.5 -2
v 2 3.7 -0.2
v 2 3.7 -1
v 2 3.7 -1.3
v 2 3.7 -2
v 2 3.8 -0.2
v 2 3.8 -0.5
v 2 3.9 -0.2
v 2 3.9 -0.5
v 2 4 -0.2
v 2 4 -1
v 2 4 -1.3
v 2 4 -2
v -0.5 2.1 -0.2
v -0.5 2.3 -0.2
v -0.5 2.4 -0.2
v -0.5 3.5 -0.2
v -0.5 3.7 -0.2
v -0.5 4 -0.2
v -0.2 2.3 -0.2
v -0.2 2.4 -0.2
v -0.1 2.9 -0.2
v -0.1 3 -0.2
v 0 3.8 -0.2
v 0 3.9 -0.2
v 0.3 3.8 -0.2
v 0.3 3.9 -0.2
v 0.4 2.9 -0.2
v 0.4 3 -0.2
v 1.1 2.4 -0.2
v 1.1 2.5 -0.2
v 1.6 3.2 -0.2
v 1.6 3.3 -0.2
v 1.8 2.4 -0.2
v 1.8 2.5 -0.2
v 1.8 3.8 -0.2
v 1.8 3.9 -0.2
v 1.9 3.2 -0.2
v 1.9 3.3 -0.2
v 2 2.1 -0.2
v 2 3.5 -0.2
v 2 3.7 -0.2
v 2 3.8 -0.2
v 2 3.9 -0.2
v 2 4 -0.2
v -0.5 2.1 -2
v -0.5 2.3 -2
v -0.5 2.4 -2
v -0.5 3.5 -2
v -0.5 3.7 -2
v -0.5 4 -2
v -0.2 2.3 -2
v -0.2 2.4 -2
v -0.2 3.3 -2
v -0.2 3.4 -2
v 0.1 3.3 -2
v 0.1 3.4 -2
v 0.4 2.9 -2
v 0.4 3 -2
v 0.4 3.9 -2
v 0.4 4 -2
v 0.9 3.9 -2
v 0.9 4 -2
v 1.2 2.9 -2
v 1.2 3 -2
v 1.3 2.4 -2
v 1.3 2.5 -2
v 1.8 2.4 -2
v 1.8 2.5 -2
v 1.8 3.1 -2
v 1.8 3.2 -2
v 2 2.1 -2
v 2 3.1 -2
v 2 3.2 -2
v 2 3.5 -2
v 2 3.7 -2
v 2 4 -2
v -0.5 2.1 -0.2
v 2 2.1 -0.2
v -0.5 2.1 -2
v 2 2.1 -2
v -0.5 4 -0.2
v 2 4 -0.2
v -0.4 4 -0.4
v -0.2 4 -0.4
v -0.4 4 -0.5
v -0.2 4 -0.5
v 1.3 4 -0.5
v 1.7 4 -0.5
v 1.3 4 -0.6
v 1.7 4 -0.6
v 0.4 4 -0.7
v 0.9 4 -0.7
v 0.4 4 -0.8
v 0.9 4 -0.8
v -0.5 4 -1
v 2 4 -1
v -0.5 4 -1.3
v 2 4 -1.3
v 1 4 -1.4
v 1.6 4 -1.4
v 1 4 -1.5
v 1.6 4 -1.5
v -0.3 4 -1.6
v 0.1 4 -1.6
v -0.3 4 -1.7
v 0.1 4 -1.7
v 0.4 4 -1.9
v 0.9 4 -1.9
v -0.5 4 -2
v 0.4 4 -2
v 0.9 4 -2
v 2 4 -2

# faces
f 3/1/1 2/1/1 1/1/1
f 4/1/1 2/1/1 3/1/1
f 5/1/1 2/1/1 4/1/1
f 6/1/1 2/1/1 5/1/1
f 7/3/1 4/3/1 3/3/1
f 8/1/1 5/1/1 4/1/1
f 8/3/1 4/3/1 7/3/1
f 9/3/1 6/3/1 5/3/1
f 9/1/1 5/1/1 8/1/1
f 10/3/1 6/3/1 9/3/1
f 11/1/1 8/1/1 7/1/1
f 11/1/1 9/1/1 8/1/1
f 11/1/1 10/1/1 9/1/1
f 12/1/1 10/1/1 11/1/1
f 13/1/1 11/1/1 7/1/1
f 13/3/1 12/3/1 11/3/1
f 14/1/1 10/1/1 12/1/1
f 14/3/1 12/3/1 13/3/1
f 15/1/1 14/1/1 13/1/1
f 16/1/1 10/1/1 14/1/1
f 16/1/1 14/1/1 15/1/1
f 17/1/1 15/1/1 13/1/1
f 17/3/1 16/3/1 15/3/1
f 18/1/1 10/1/1 16/1/1
f 18/3/1 16/3/1 17/3/1
f 19/1/1 13/1/1 7/1/1
f 19/1/1 17/1/1 13/1/1
f 19/1/1 18/1/1 17/1/1
f 20/1/1 18/1/1 19/1/1
f 21/1/1 19/1/1 7/1/1
f 21/3/1 20/3/1 19/3/1
f 22/1/1 18/1/1 20/1/1
f 22/3/1 20/3/1 21/3/1
f 23/1/1 21/1/1 7/1/1
f 23/1/1 22/1/1 21/1/1
f 24/1/1 10/1/1 18/1/1
f 24/1/1 22/1/1 23/1/1
f 24/1/1 18/1/1 22/1/1
f 25/2/1 24/2/1 23/2/1
f 26/2/1 24/2/1 25/2/1
f 27/2/1 24/2/1 26/2/1
f 28/2/1 24/2/1 27/2/1
f 29/1/1 28/1/1 27/1/1
f 30/1/1 28/1/1 29/1/1
f 31/1/1 29/1/1 27/1/1
f 31/3/1 30/3/1 29/3/1
f 32/1/1 28/1/1 30/1/1
f 32/3/1 30/3/1 31/3/1
f 33/1/1 26/1/1 25/1/1
f 34/2/1 27/2/1 26/2/1
f 34/1/1 26/1/1 33/1/1
f 35/1/1 31/1/1 27/1/1
f 35/2/1 27/2/1 34/2/1
f 35/1/1 32/1/1 31/1/1
f 36/1/1 28/1/1 32/1/1
f 36/1/1 32/1/1 35/1/1
f 37/1/2 38/1/2 39/1/2
f 39/1/2 38/1/2 40/1/2
f 37/1/2 39/1/2 41/1/2
f 39/3/2 40/3/2 41/3/2
f 40/1/2 38/1/2 42/1/2
f 41/3/2 40/3/2 42/3/2
f 37/1/2 41/1/2 43/1/2
f 41/1/2 42/1/2 43/1/2
f 43/1/2 42/1/2 44/1/2
f 37/1/2 43/1/2 45/1/2
f 43/3/2 44/3/2 45/3/2
f 44/1/2 42/1/2 46/1/2
f 45/3/2 44/3/2 46/3/2
f 42/1/2 38/1/2 47/1/2
f 46/1/2 42/1/2 47/1/2
f 45/1/2 46/1/2 47/1/2
f 47/1/2 38/1/2 48/1/2
f 45/1/2 47/1/2 49/1/2
f 47/3/2 48/3/2 49/3/2
f 49/3/2 48/3/2 50/3/2
f 37/1/2 45/1/2 51/1/2
f 45/1/2 49/1/2 51/1/2
f 49/1/2 50/1/2 51/1/2
f 51/1/2 50/1/2 52/1/2
f 51/2/2 52/2/2 53/2/2
f 53/2/2 52/2/2 54/2/2
f 54/2/2 52/2/2 55/2/2
f 55/2/2 52/2/2 56/2/2
f 53/1/2 54/1/2 57/1/2
f 57/1/2 54/1/2 58/1/2
f 57/3/2 58/3/2 59/3/2
f 58/1/2 54/1/2 60/1/2
f 59/3/2 58/3/2 60/3/2
f 59/1/2 60/1/2 61/1/2
f 54/2/2 55/2/2 62/2/2
f 61/1/2 60/1/2 62/1/2
f 60/1/2 54/1/2 62/1/2
f 55/1/2 56/1/2 63/1/2
f 62/2/2 55/2/2 63/2/2
f 63/1/2 56/1/2 64/1/2
f 71/1/3 66/1/3 65/1/3
f 71/3/3 67/3/3 66/3/3
f 72/1/3 68/1/3 67/1/3
f 72/3/3 67/3/3 71/3/3
f 73/1/3 72/1/3 71/1/3
f 73/1/3 68/1/3 72/1/3
f 74/1/3 68/1/3 73/1/3
f 75/1/3 70/1/3 69/1/3
f 76/1/3 70/1/3 75/1/3
f 77/1/3 75/1/3 69/1/3
f 77/3/3 76/3/3 75/3/3
f 78/1/3 70/1/3 76/1/3
f 78/3/3 76/3/3 77/3/3
f 79/1/3 73/1/3 71/1/3
f 79/3/3 74/3/3 73/3/3
f 80/1/3 68/1/3 74/1/3
f 80/3/3 74/3/3 79/3/3
f 81/1/3 79/1/3 71/1/3
f 81/1/3 80/1/3 79/1/3
f 82/1/3 80/1/3 81/1/3
f 83/1/3 68/1/3 80/1/3
f 83/1/3 80/1/3 82/1/3
f 84/1/3 68/1/3 83/1/3
f 85/3/3 82/3/3 81/3/3
f 85/1/3 81/1/3 71/1/3
f 86/1/3 83/1/3 82/1/3
f 86/3/3 82/3/3 85/3/3
f 87/1/3 78/1/3 77/1/3
f 87/1/3 77/1/3 69/1/3
f 88/1/3 70/1/3 78/1/3
f 88/1/3 78/1/3 87/1/3
f 89/1/3 83/1/3 86/1/3
f 89/1/3 86/1/3 85/1/3
f 89/3/3 84/3/3 83/3/3
f 90/1/3 68/1/3 84/1/3
f 90/3/3 84/3/3 89/3/3
f 91/1/3 89/1/3 85/1/3
f 91/1/3 71/1/3 65/1/3
f 91/1/3 90/1/3 89/1/3
f 91/1/3 85/1/3 71/1/3
f 92/1/3 68/1/3 90/1/3
f 92/1/3 90/1/3 91/1/3
f 92/2/3 69/2/3 68/2/3
f 93/1/3 87/1/3 69/1/3
f 93/2/3 69/2/3 92/2/3
f 94/3/3 88/3/3 87/3/3
f 94/1/3 87/1/3 93/1/3
f 95/1/3 70/1/3 88/1/3
f 95/3/3 88/3/3 94/3/3
f 96/1/3 70/1/3 95/1/3
f 97/1/4 98/1/4 103/1/4
f 98/3/4 99/3/4 103/3/4
f 99/1/4 100/1/4 104/1/4
f 103/3/4 99/3/4 104/3/4
f 104/1/4 100/1/4 105/1/4
f 105/1/4 100/1/4 106/1/4
f 103/1/4 104/1/4 107/1/4
f 104/1/4 105/1/4 107/1/4
f 105/3/4 106/3/4 107/3/4
f 106/1/4 100/1/4 108/1/4
f 107/3/4 106/3/4 108/3/4
f 103/1/4 107/1/4 109/1/4
f 107/1/4 108/1/4 109/1/4
f 109/1/4 108/1/4 110/1/4
f 101/1/4 102/1/4 111/1/4
f 111/1/4 102/1/4 112/1/4
f 101/1/4 111/1/4 113/1/4
f 111/3/4 112/3/4 113/3/4
f 113/3/4 112/3/4 114/3/4
f 103/1/4 109/1/4 115/1/4
f 109/3/4 110/3/4 115/3/4
f 110/1/4 108/1/4 116/1/4
f 115/3/4 110/3/4 116/3/4
f 103/1/4 115/1/4 117/1/4
f 115/1/4 116/1/4 117/1/4
f 117/1/4 116/1/4 118/1/4
f 103/1/4 117/1/4 119/1/4
f 117/3/4 118/3/4 119/3/4
f 118/1/4 116/1/4 120/1/4
f 119/3/4 118/3/4 120/3/4
f 116/1/4 108/1/4 121/1/4
f 120/1/4 116/1/4 121/1/4
f 121/1/4 108/1/4 122/1/4
f 119/1/4 120/1/4 123/1/4
f 97/1/4 103/1/4 123/1/4
f 103/1/4 119/1/4 123/1/4
f 120/1/4 121/1/4 123/1/4
f 121/3/4 122/3/4 124/3/4
f 123/1/4 121/1/4 124/1/4
f 122/1/4 108/1/4 125/1/4
f 124/3/4 122/3/4 125/3/4
f 100/2/4 101/2/4 126/2/4
f 125/1/4 108/1/4 126/1/4
f 108/1/4 100/1/4 126/1/4
f 101/1/4 113/1/4 127/1/4
f 126/2/4 101/2/4 127/2/4
f 113/1/4 114/1/4 127/1/4
f 127/1/4 114/1/4 128/1/4
f 131/1/5 130/1/5 129/1/5
f 132/1/5 130/1/5 131/1/5
f 133/1/6 134/1/6 135/1/6
f 135/1/6 134/1/6 136/1/6
f 133/1/6 135/1/6 137/1/6
f 135/3/6 136/3/6 137/3/6
f 136/1/6 134/1/6 138/1/6
f 137/3/6 136/3/6 138/3/6
f 138/1/6 134/1/6 139/1/6
f 139/1/6 134/1/6 140/1/6
f 137/1/6 138/1/6 141/1/6
f 138/1/6 139/1/6 141/1/6
f 139/3/6 140/3/6 141/3/6
f 140/1/6 134/1/6 142/1/6
f 141/3/6 140/3/6 142/3/6
f 137/1/6 141/1/6 143/1/6
f 141/1/6 142/1/6 143/1/6
f 143/1/6 142/1/6 144/1/6
f 137/1/6 143/1/6 145/1/6
f 143/3/6 144/3/6 145/3/6
f 144/1/6 142/1/6 146/1/6
f 145/3/6 144/3/6 146/3/6
f 133/1/6 137/1/6 147/1/6
f 137/1/6 145/1/6 147/1/6
f 145/1/6 146/1/6 147/1/6
f 146/1/6 142/1/6 148/1/6
f 147/1/6 146/1/6 148/1/6
f 142/1/6 134/1/6 148/1/6
f 147/2/6 148/2/6 149/2/6
f 149/2/6 148/2/6 150/2/6
f 149/1/6 150/1/6 151/1/6
f 151/1/6 150/1/6 152/1/6
f 149/1/6 151/1/6 153/1/6
f 151/3/6 152/3/6 153/3/6
f 152/1/6 150/1/6 154/1/6
f 153/3/6 152/3/6 154/3/6
f 149/1/6 153/1/6 155/1/6
f 153/1/6 154/1/6 155/1/6
f 155/1/6 154/1/6 156/1/6
f 149/1/6 155/1/6 157/1/6
f 155/3/6 156/3/6 157/3/6
f 156/1/6 154/1/6 158/1/6
f 157/3/6 156/3/6 158/3/6
f 157/1/6 158/1/6 159/1/6
f 158/1/6 154/1/6 159/1/6
f 159/1/6 154/1/6 160/1/6
f 149/1/6 157/1/6 161/1/6
f 157/1/6 159/1/6 161/1/6
f 159/3/6 160/3/6 162/3/6
f 161/1/6 159/1/6 162/1/6
f 160/1/6 154/1/6 163/1/6
f 162/3/6 160/3/6 163/3/6
f 154/1/6 150/1/6 164/1/6
f 163/1/6 154/1/6 164/1/6
