# MagicaVoxel @ Ephtracy

# group
o 

# material
mtllib Box_Tall.mtl
usemtl palette

# normals
vn -1 0 0
vn 1 0 0
vn 0 0 1
vn 0 0 -1
vn 0 -1 0
vn 0 1 0

# texcoords
vt 0.744141 0.5
vt 0.748047 0.5
vt 0.759766 0.5

# verts
v 0.1 0.9 0.6
v 0.1 0.9 -2
v 0.1 1.2 -1.2
v 0.1 1.2 -1.6
v 0.1 1.3 -0.3
v 0.1 1.3 -0.5
v 0.1 1.3 -1.2
v 0.1 1.3 -1.6
v 0.1 1.4 -0.3
v 0.1 1.4 -0.5
v 0.1 1.6 0.6
v 0.1 1.6 0.1
v 0.1 1.7 0.6
v 0.1 1.7 0.1
v 0.1 2.2 -0.3
v 0.1 2.2 -1.1
v 0.1 2.3 -0.3
v 0.1 2.3 -1.1
v 0.1 2.7 0.6
v 0.1 2.7 0.2
v 0.1 2.7 -1.1
v 0.1 2.7 -2
v 0.1 2.8 0.6
v 0.1 2.8 0.2
v 0.1 2.8 -1.1
v 0.1 2.8 -2
v 0.1 3.2 5.96046e-08
v 0.1 3.2 -0.5
v 0.1 3.3 5.96046e-08
v 0.1 3.3 -0.5
v 0.1 3.6 0.6
v 0.1 3.6 -2
v 0.1 3.8 0.6
v 0.1 3.8 -2
v 0.1 4 0.6
v 0.1 4 -2
v 2 0.9 0.6
v 2 0.9 -2
v 2 1.2 -1.7
v 2 1.2 -2
v 2 1.3 -0.3
v 2 1.3 -0.7
v 2 1.3 -1.7
v 2 1.3 -2
v 2 1.4 -0.3
v 2 1.4 -0.7
v 2 1.8 -1.8
v 2 1.8 -2
v 2 1.9 -1.8
v 2 1.9 -2
v 2 2 -0.1
v 2 2 -1
v 2 2.1 -0.1
v 2 2.1 -1
v 2 3.1 -1.1
v 2 3.1 -1.6
v 2 3.2 0.6
v 2 3.2 5.96046e-08
v 2 3.2 -1.1
v 2 3.2 -1.6
v 2 3.3 0.6
v 2 3.3 5.96046e-08
v 2 3.6 0.6
v 2 3.6 -2
v 2 3.8 0.6
v 2 3.8 -2
v 2 4 0.6
v 2 4 -2
v 0.1 0.9 0.6
v 0.1 1.6 0.6
v 0.1 1.7 0.6
v 0.1 2.7 0.6
v 0.1 2.8 0.6
v 0.1 3.6 0.6
v 0.1 3.8 0.6
v 0.1 4 0.6
v 0.2 1.6 0.6
v 0.2 1.7 0.6
v 0.2 2.2 0.6
v 0.2 2.3 0.6
v 0.2 2.7 0.6
v 0.2 2.8 0.6
v 0.3 3.3 0.6
v 0.3 3.4 0.6
v 0.6 2.2 0.6
v 0.6 2.3 0.6
v 0.6 2.7 0.6
v 0.6 2.8 0.6
v 0.8 3.3 0.6
v 0.8 3.4 0.6
v 1 3.8 0.6
v 1 4 0.6
v 1.1 1.1 0.6
v 1.1 1.2 0.6
v 1.2 2.7 0.6
v 1.2 2.8 0.6
v 1.2 3.8 0.6
v 1.2 4 0.6
v 1.5 1.9 0.6
v 1.5 2 0.6
v 1.7 3.2 0.6
v 1.7 3.3 0.6
v 1.7 3.9 0.6
v 1.7 4 0.6
v 1.8 1.1 0.6
v 1.8 1.2 0.6
v 1.8 3.9 0.6
v 1.8 4 0.6
v 1.9 1.9 0.6
v 1.9 2 0.6
v 2 0.9 0.6
v 2 3.2 0.6
v 2 3.3 0.6
v 2 3.6 0.6
v 2 3.8 0.6
v 2 4 0.6
v 0.1 0.9 -2
v 0.1 2.7 -2
v 0.1 2.8 -2
v 0.1 3.6 -2
v 0.1 3.8 -2
v 0.1 4 -2
v 0.2 2.7 -2
v 0.2 2.8 -2
v 0.3 2.1 -2
v 0.3 2.2 -2
v 0.4 3.4 -2
v 0.4 3.5 -2
v 0.5 3.9 -2
v 0.5 4 -2
v 0.6 1.3 -2
v 0.6 1.4 -2
v 0.6 3.9 -2
v 0.6 4 -2
v 0.7 2.1 -2
v 0.7 2.2 -2
v 1 1.3 -2
v 1 1.4 -2
v 1 3.4 -2
v 1 3.5 -2
v 1 3.8 -2
v 1 4 -2
v 1.2 1.2 -2
v 1.2 1.3 -2
v 1.2 2.7 -2
v 1.2 2.8 -2
v 1.2 3.8 -2
v 1.2 4 -2
v 1.6 2.7 -2
v 1.6 2.8 -2
v 1.8 1.8 -2
v 1.8 1.9 -2
v 2 0.9 -2
v 2 1.2 -2
v 2 1.3 -2
v 2 1.8 -2
v 2 1.9 -2
v 2 3.6 -2
v 2 3.8 -2
v 2 4 -2
v 0.1 0.9 0.6
v 2 0.9 0.6
v 0.1 0.9 -2
v 2 0.9 -2
v 0.1 4 0.6
v 1 4 0.6
v 1.2 4 0.6
v 1.7 4 0.6
v 1.8 4 0.6
v 2 4 0.6
v 0.4 4 0.5
v 0.5 4 0.5
v 0.4 4 -0.1
v 0.5 4 -0.1
v 1.2 4 -0.1
v 1.3 4 -0.1
v 1.7 4 -0.2
v 1.8 4 -0.2
v 1.2 4 -0.4
v 1.3 4 -0.4
v 0.2 4 -0.7
v 0.3 4 -0.7
v 0.7 4 -0.7
v 0.8 4 -0.7
v 1.6 4 -0.8
v 1.7 4 -0.8
v 0.2 4 -1
v 0.3 4 -1
v 1.6 4 -1.1
v 1.7 4 -1.1
v 0.7 4 -1.5
v 0.8 4 -1.5
v 0.5 4 -1.7
v 0.6 4 -1.7
v 0.1 4 -2
v 0.5 4 -2
v 0.6 4 -2
v 1 4 -2
v 1.2 4 -2
v 2 4 -2

# faces
f 3/1/1 2/1/1 1/1/1
f 4/1/1 2/1/1 3/1/1
f 5/1/1 3/1/1 1/1/1
f 6/1/1 3/1/1 5/1/1
f 7/3/1 4/3/1 3/3/1
f 7/1/1 3/1/1 6/1/1
f 8/1/1 2/1/1 4/1/1
f 8/3/1 4/3/1 7/3/1
f 9/3/1 6/3/1 5/3/1
f 9/1/1 5/1/1 1/1/1
f 10/1/1 7/1/1 6/1/1
f 10/3/1 6/3/1 9/3/1
f 10/1/1 8/1/1 7/1/1
f 11/1/1 9/1/1 1/1/1
f 11/1/1 10/1/1 9/1/1
f 12/1/1 10/1/1 11/1/1
f 13/3/1 12/3/1 11/3/1
f 14/1/1 10/1/1 12/1/1
f 14/3/1 12/3/1 13/3/1
f 15/1/1 14/1/1 13/1/1
f 15/1/1 10/1/1 14/1/1
f 16/1/1 8/1/1 10/1/1
f 16/1/1 10/1/1 15/1/1
f 17/1/1 15/1/1 13/1/1
f 17/3/1 16/3/1 15/3/1
f 18/1/1 8/1/1 16/1/1
f 18/3/1 16/3/1 17/3/1
f 19/1/1 17/1/1 13/1/1
f 19/1/1 18/1/1 17/1/1
f 20/1/1 18/1/1 19/1/1
f 21/1/1 8/1/1 18/1/1
f 21/1/1 18/1/1 20/1/1
f 22/1/1 2/1/1 8/1/1
f 22/1/1 8/1/1 21/1/1
f 23/3/1 20/3/1 19/3/1
f 24/1/1 21/1/1 20/1/1
f 24/3/1 20/3/1 23/3/1
f 25/3/1 22/3/1 21/3/1
f 25/1/1 21/1/1 24/1/1
f 26/3/1 22/3/1 25/3/1
f 27/1/1 24/1/1 23/1/1
f 27/1/1 25/1/1 24/1/1
f 27/1/1 26/1/1 25/1/1
f 28/1/1 26/1/1 27/1/1
f 29/1/1 27/1/1 23/1/1
f 29/3/1 28/3/1 27/3/1
f 30/1/1 26/1/1 28/1/1
f 30/3/1 28/3/1 29/3/1
f 31/1/1 29/1/1 23/1/1
f 31/1/1 30/1/1 29/1/1
f 32/1/1 26/1/1 30/1/1
f 32/1/1 30/1/1 31/1/1
f 33/2/1 32/2/1 31/2/1
f 34/2/1 32/2/1 33/2/1
f 35/1/1 34/1/1 33/1/1
f 36/1/1 34/1/1 35/1/1
f 37/1/2 38/1/2 39/1/2
f 39/1/2 38/1/2 40/1/2
f 37/1/2 39/1/2 41/1/2
f 41/1/2 39/1/2 42/1/2
f 39/3/2 40/3/2 43/3/2
f 42/1/2 39/1/2 43/1/2
f 43/3/2 40/3/2 44/3/2
f 41/3/2 42/3/2 45/3/2
f 37/1/2 41/1/2 45/1/2
f 43/1/2 44/1/2 46/1/2
f 45/3/2 42/3/2 46/3/2
f 42/1/2 43/1/2 46/1/2
f 45/1/2 46/1/2 47/1/2
f 46/1/2 44/1/2 47/1/2
f 47/1/2 44/1/2 48/1/2
f 45/1/2 47/1/2 49/1/2
f 47/3/2 48/3/2 49/3/2
f 49/3/2 48/3/2 50/3/2
f 37/1/2 45/1/2 51/1/2
f 45/1/2 49/1/2 51/1/2
f 49/1/2 50/1/2 51/1/2
f 51/1/2 50/1/2 52/1/2
f 37/1/2 51/1/2 53/1/2
f 51/3/2 52/3/2 53/3/2
f 52/1/2 50/1/2 54/1/2
f 53/3/2 52/3/2 54/3/2
f 53/1/2 54/1/2 55/1/2
f 54/1/2 50/1/2 55/1/2
f 55/1/2 50/1/2 56/1/2
f 37/1/2 53/1/2 57/1/2
f 53/1/2 55/1/2 57/1/2
f 57/1/2 55/1/2 58/1/2
f 55/3/2 56/3/2 59/3/2
f 58/1/2 55/1/2 59/1/2
f 56/1/2 50/1/2 60/1/2
f 59/3/2 56/3/2 60/3/2
f 57/3/2 58/3/2 61/3/2
f 58/1/2 59/1/2 62/1/2
f 61/3/2 58/3/2 62/3/2
f 59/1/2 60/1/2 62/1/2
f 61/1/2 62/1/2 63/1/2
f 60/1/2 50/1/2 64/1/2
f 63/1/2 62/1/2 64/1/2
f 62/1/2 60/1/2 64/1/2
f 63/2/2 64/2/2 65/2/2
f 65/2/2 64/2/2 66/2/2
f 65/1/2 66/1/2 67/1/2
f 67/1/2 66/1/2 68/1/2
f 77/1/3 70/1/3 69/1/3
f 77/3/3 71/3/3 70/3/3
f 78/1/3 72/1/3 71/1/3
f 78/3/3 71/3/3 77/3/3
f 79/1/3 72/1/3 78/1/3
f 80/1/3 72/1/3 79/1/3
f 81/3/3 73/3/3 72/3/3
f 81/1/3 72/1/3 80/1/3
f 82/1/3 74/1/3 73/1/3
f 82/3/3 73/3/3 81/3/3
f 83/1/3 81/1/3 80/1/3
f 83/1/3 74/1/3 82/1/3
f 83/1/3 82/1/3 81/1/3
f 84/1/3 74/1/3 83/1/3
f 85/3/3 80/3/3 79/3/3
f 85/1/3 79/1/3 78/1/3
f 85/1/3 78/1/3 77/1/3
f 86/1/3 83/1/3 80/1/3
f 86/3/3 80/3/3 85/3/3
f 87/1/3 83/1/3 86/1/3
f 88/1/3 83/1/3 87/1/3
f 89/3/3 84/3/3 83/3/3
f 89/1/3 83/1/3 88/1/3
f 90/1/3 74/1/3 84/1/3
f 90/3/3 84/3/3 89/3/3
f 91/1/3 76/1/3 75/1/3
f 91/2/3 75/2/3 74/2/3
f 92/1/3 76/1/3 91/1/3
f 93/1/3 77/1/3 69/1/3
f 93/1/3 85/1/3 77/1/3
f 93/1/3 86/1/3 85/1/3
f 93/1/3 87/1/3 86/1/3
f 94/1/3 87/1/3 93/1/3
f 95/3/3 88/3/3 87/3/3
f 95/1/3 87/1/3 94/1/3
f 96/1/3 90/1/3 89/1/3
f 96/3/3 88/3/3 95/3/3
f 96/1/3 89/1/3 88/1/3
f 97/2/3 92/2/3 91/2/3
f 97/2/3 91/2/3 74/2/3
f 98/2/3 92/2/3 97/2/3
f 99/1/3 95/1/3 94/1/3
f 99/1/3 96/1/3 95/1/3
f 100/1/3 96/1/3 99/1/3
f 101/1/3 90/1/3 96/1/3
f 101/1/3 96/1/3 100/1/3
f 102/1/3 90/1/3 101/1/3
f 103/1/3 98/1/3 97/1/3
f 104/1/3 98/1/3 103/1/3
f 105/1/3 93/1/3 69/1/3
f 105/3/3 94/3/3 93/3/3
f 106/1/3 99/1/3 94/1/3
f 106/3/3 94/3/3 105/3/3
f 107/3/3 104/3/3 103/3/3
f 107/1/3 103/1/3 97/1/3
f 108/3/3 104/3/3 107/3/3
f 109/1/3 99/1/3 106/1/3
f 109/3/3 100/3/3 99/3/3
f 109/1/3 106/1/3 105/1/3
f 110/1/3 101/1/3 100/1/3
f 110/3/3 100/3/3 109/3/3
f 111/1/3 105/1/3 69/1/3
f 111/1/3 109/1/3 105/1/3
f 111/1/3 110/1/3 109/1/3
f 112/1/3 101/1/3 110/1/3
f 112/1/3 110/1/3 111/1/3
f 112/3/3 102/3/3 101/3/3
f 113/1/3 90/1/3 102/1/3
f 113/3/3 102/3/3 112/3/3
f 114/1/3 74/1/3 90/1/3
f 114/1/3 90/1/3 113/1/3
f 114/2/3 97/2/3 74/2/3
f 115/1/3 108/1/3 107/1/3
f 115/2/3 97/2/3 114/2/3
f 115/1/3 107/1/3 97/1/3
f 116/1/3 108/1/3 115/1/3
f 117/1/4 118/1/4 123/1/4
f 118/3/4 119/3/4 123/3/4
f 119/1/4 120/1/4 124/1/4
f 123/3/4 119/3/4 124/3/4
f 117/1/4 123/1/4 125/1/4
f 123/1/4 124/1/4 125/1/4
f 125/1/4 124/1/4 126/1/4
f 124/1/4 120/1/4 127/1/4
f 126/1/4 124/1/4 127/1/4
f 127/1/4 120/1/4 128/1/4
f 121/1/4 122/1/4 129/1/4
f 129/1/4 122/1/4 130/1/4
f 117/1/4 125/1/4 131/1/4
f 131/1/4 125/1/4 132/1/4
f 121/1/4 129/1/4 133/1/4
f 129/3/4 130/3/4 133/3/4
f 133/3/4 130/3/4 134/3/4
f 125/3/4 126/3/4 135/3/4
f 132/1/4 125/1/4 135/1/4
f 126/1/4 127/1/4 136/1/4
f 135/3/4 126/3/4 136/3/4
f 131/3/4 132/3/4 137/3/4
f 117/1/4 131/1/4 137/1/4
f 132/1/4 135/1/4 138/1/4
f 137/3/4 132/3/4 138/3/4
f 135/1/4 136/1/4 138/1/4
f 127/3/4 128/3/4 139/3/4
f 138/1/4 136/1/4 139/1/4
f 136/1/4 127/1/4 139/1/4
f 128/1/4 120/1/4 140/1/4
f 139/3/4 128/3/4 140/3/4
f 120/2/4 121/2/4 141/2/4
f 133/1/4 134/1/4 141/1/4
f 121/1/4 133/1/4 141/1/4
f 141/1/4 134/1/4 142/1/4
f 138/1/4 139/1/4 143/1/4
f 117/1/4 137/1/4 143/1/4
f 137/1/4 138/1/4 143/1/4
f 139/1/4 140/1/4 143/1/4
f 143/1/4 140/1/4 144/1/4
f 144/1/4 140/1/4 145/1/4
f 145/1/4 140/1/4 146/1/4
f 141/2/4 142/2/4 147/2/4
f 120/2/4 141/2/4 147/2/4
f 147/2/4 142/2/4 148/2/4
f 145/3/4 146/3/4 149/3/4
f 144/1/4 145/1/4 149/1/4
f 146/1/4 140/1/4 150/1/4
f 149/3/4 146/3/4 150/3/4
f 144/1/4 149/1/4 151/1/4
f 149/1/4 150/1/4 151/1/4
f 151/1/4 150/1/4 152/1/4
f 117/1/4 143/1/4 153/1/4
f 143/3/4 144/3/4 154/3/4
f 153/1/4 143/1/4 154/1/4
f 144/1/4 151/1/4 155/1/4
f 154/3/4 144/3/4 155/3/4
f 151/3/4 152/3/4 156/3/4
f 155/1/4 151/1/4 156/1/4
f 152/1/4 150/1/4 157/1/4
f 156/3/4 152/3/4 157/3/4
f 140/1/4 120/1/4 158/1/4
f 157/1/4 150/1/4 158/1/4
f 150/1/4 140/1/4 158/1/4
f 120/2/4 147/2/4 158/2/4
f 147/1/4 148/1/4 159/1/4
f 158/2/4 147/2/4 159/2/4
f 159/1/4 148/1/4 160/1/4
f 163/1/5 162/1/5 161/1/5
f 164/1/5 162/1/5 163/1/5
f 165/1/6 166/1/6 171/1/6
f 171/1/6 166/1/6 172/1/6
f 165/1/6 171/1/6 173/1/6
f 171/3/6 172/3/6 173/3/6
f 172/1/6 166/1/6 174/1/6
f 173/3/6 172/3/6 174/3/6
f 166/2/6 167/2/6 175/2/6
f 167/1/6 168/1/6 175/1/6
f 175/1/6 168/1/6 176/1/6
f 168/3/6 169/3/6 177/3/6
f 176/1/6 168/1/6 177/1/6
f 169/1/6 170/1/6 178/1/6
f 177/3/6 169/3/6 178/3/6
f 175/3/6 176/3/6 179/3/6
f 166/2/6 175/2/6 179/2/6
f 176/1/6 177/1/6 180/1/6
f 179/3/6 176/3/6 180/3/6
f 177/1/6 178/1/6 180/1/6
f 173/1/6 174/1/6 181/1/6
f 165/1/6 173/1/6 181/1/6
f 181/1/6 174/1/6 182/1/6
f 174/1/6 166/1/6 183/1/6
f 182/1/6 174/1/6 183/1/6
f 183/1/6 166/1/6 184/1/6
f 180/1/6 178/1/6 185/1/6
f 179/1/6 180/1/6 185/1/6
f 185/1/6 178/1/6 186/1/6
f 181/3/6 182/3/6 187/3/6
f 165/1/6 181/1/6 187/1/6
f 182/1/6 183/1/6 188/1/6
f 187/3/6 182/3/6 188/3/6
f 185/3/6 186/3/6 189/3/6
f 179/1/6 185/1/6 189/1/6
f 186/1/6 178/1/6 190/1/6
f 189/3/6 186/3/6 190/3/6
f 183/3/6 184/3/6 191/3/6
f 188/1/6 183/1/6 191/1/6
f 187/1/6 188/1/6 191/1/6
f 184/1/6 166/1/6 192/1/6
f 191/3/6 184/3/6 192/3/6
f 187/1/6 191/1/6 193/1/6
f 191/1/6 192/1/6 193/1/6
f 193/1/6 192/1/6 194/1/6
f 165/1/6 187/1/6 195/1/6
f 187/1/6 193/1/6 195/1/6
f 193/3/6 194/3/6 196/3/6
f 195/1/6 193/1/6 196/1/6
f 194/1/6 192/1/6 197/1/6
f 196/3/6 194/3/6 197/3/6
f 166/2/6 179/2/6 198/2/6
f 197/1/6 192/1/6 198/1/6
f 192/1/6 166/1/6 198/1/6
f 179/1/6 189/1/6 199/1/6
f 198/2/6 179/2/6 199/2/6
f 189/1/6 190/1/6 199/1/6
f 178/1/6 170/1/6 200/1/6
f 199/1/6 190/1/6 200/1/6
f 190/1/6 178/1/6 200/1/6
