# MagicaVoxel @ Ephtracy

# group
o 

# material
mtllib ED_Adrenaline.mtl
usemtl palette

# normals
vn -1 0 0
vn 1 0 0
vn 0 0 1
vn 0 0 -1
vn 0 -1 0
vn 0 1 0

# texcoords
vt 0.767578 0.5
vt 0.787109 0.5
vt 0.791016 0.5
vt 0.849609 0.5
vt 0.884766 0.5
vt 0.900391 0.5
vt 0.947266 0.5
vt 0.951172 0.5

# verts
v -2 0 1.7
v -2 0 1.2
v -2 1.3 1.5
v -2 1.3 1.2
v -2 1.4 1.6
v -2 1.4 1.5
v -2 1.4 1.3
v -2 1.4 1.2
v -2 1.5 1.6
v -2 1.5 1.3
v -2 1.7 1.7
v -2 1.7 1.2
v -1.9 0 1.9
v -1.9 0 1.7
v -1.9 0 1.2
v -1.9 0 1
v -1.9 0.1 1.1
v -1.9 0.1 1
v -1.9 0.4 1.1
v -1.9 0.4 1
v -1.9 0.5 1.2
v -1.9 0.5 1
v -1.9 1.3 1.2
v -1.9 1.4 1.2
v -1.9 1.7 1.9
v -1.9 1.7 1.7
v -1.9 1.7 1.2
v -1.9 1.7 1
v -1.7 0 2
v -1.7 0 1.9
v -1.7 0 1
v -1.7 0 0.9
v -1.7 0.1 1
v -1.7 0.4 1
v -1.7 0.5 1
v -1.7 0.5 0.9
v -1.7 1.1 1
v -1.7 1.1 0.9
v -1.7 1.2 1
v -1.7 1.2 0.9
v -1.7 1.7 2
v -1.7 1.7 1.9
v -1.7 1.7 1
v -1.7 1.7 0.9
v -1.3 0.1 1.7
v -1.3 0.1 1.6
v -1.3 0.1 1.3
v -1.3 0.1 1.2
v -1.3 0.2 1.7
v -1.3 0.2 1.6
v -1.3 0.2 1.3
v -1.3 0.2 1.2
v -1.2 0 1.8
v -1.2 0 1.7
v -1.2 0 1.2
v -1.2 0 1.1
v -1.2 0.1 1.8
v -1.2 0.1 1.7
v -1.2 0.1 1.6
v -1.2 0.1 1.3
v -1.2 0.1 1.2
v -1.2 0.1 1.1
v -1.2 0.2 1.6
v -1.2 0.2 1.3
v -1.1 0 1.7
v -1.1 0 1.2
v -1.1 0.1 1.7
v -1.1 0.1 1.2
v -1.8 0 1.7
v -1.8 0 1.6
v -1.8 0 1.3
v -1.8 0 1.2
v -1.8 0.1 1.7
v -1.8 0.1 1.6
v -1.8 0.1 1.3
v -1.8 0.1 1.2
v -1.7 0 1.8
v -1.7 0 1.7
v -1.7 0 1.2
v -1.7 0 1.1
v -1.7 0.1 1.8
v -1.7 0.1 1.7
v -1.7 0.1 1.6
v -1.7 0.1 1.3
v -1.7 0.1 1.2
v -1.7 0.1 1.1
v -1.7 0.2 1.6
v -1.7 0.2 1.3
v -1.6 0.1 1.7
v -1.6 0.1 1.6
v -1.6 0.1 1.3
v -1.6 0.1 1.2
v -1.6 0.2 1.7
v -1.6 0.2 1.6
v -1.6 0.2 1.3
v -1.6 0.2 1.2
v -1.2 0 2
v -1.2 0 1.9
v -1.2 0 1
v -1.2 0 0.9
v -1.2 0.1 1.9
v -1.2 0.3 1.9
v -1.2 0.4 2
v -1.2 0.4 1.9
v -1.2 1.1 2
v -1.2 1.1 1.9
v -1.2 1.2 2
v -1.2 1.2 1.9
v -1.2 1.7 2
v -1.2 1.7 1.9
v -1.2 1.7 1
v -1.2 1.7 0.9
v -1 0 1.9
v -1 0 1.7
v -1 0 1.2
v -1 0 1
v -1 0.1 1.9
v -1 0.1 1.8
v -1 0.3 1.9
v -1 0.3 1.8
v -1 0.4 1.9
v -1 0.4 1.7
v -1 0.8 1.7
v -1 1.3 1.7
v -1 1.4 1.7
v -1 1.7 1.9
v -1 1.7 1.7
v -1 1.7 1.2
v -1 1.7 1
v -0.9 0 1.7
v -0.9 0 1.2
v -0.9 0.3 1.6
v -0.9 0.3 1.4
v -0.9 0.4 1.7
v -0.9 0.4 1.6
v -0.9 0.4 1.5
v -0.9 0.4 1.4
v -0.9 0.4 1.3
v -0.9 0.5 1.6
v -0.9 0.5 1.5
v -0.9 0.5 1.4
v -0.9 0.5 1.3
v -0.9 0.6 1.4
v -0.9 0.6 1.3
v -0.9 0.7 1.6
v -0.9 0.7 1.5
v -0.9 0.7 1.4
v -0.9 0.7 1.3
v -0.9 0.8 1.7
v -0.9 0.8 1.6
v -0.9 0.8 1.5
v -0.9 0.8 1.4
v -0.9 0.9 1.6
v -0.9 0.9 1.5
v -0.9 1 1.5
v -0.9 1 1.4
v -0.9 1.3 1.7
v -0.9 1.3 1.4
v -0.9 1.4 1.7
v -0.9 1.4 1.6
v -0.9 1.4 1.4
v -0.9 1.4 1.3
v -0.9 1.5 1.6
v -0.9 1.5 1.3
v -0.9 1.7 1.7
v -0.9 1.7 1.2
v -1.7 0 2
v -1.7 1.7 2
v -1.6 0.9 2
v -1.6 1 2
v -1.6 1.3 2
v -1.6 1.4 2
v -1.5 0.5 2
v -1.5 0.6 2
v -1.5 1.1 2
v -1.5 1.2 2
v -1.4 0.9 2
v -1.4 1 2
v -1.4 1.3 2
v -1.4 1.4 2
v -1.3 0 2
v -1.3 0.4 2
v -1.3 0.5 2
v -1.3 0.6 2
v -1.2 0 2
v -1.2 0.4 2
v -1.2 1.1 2
v -1.2 1.2 2
v -1.2 1.7 2
v -1.9 0 1.9
v -1.9 1.7 1.9
v -1.7 0 1.9
v -1.7 1.7 1.9
v -1.2 0 1.9
v -1.2 0.1 1.9
v -1.2 0.3 1.9
v -1.2 0.4 1.9
v -1.2 1.1 1.9
v -1.2 1.2 1.9
v -1.2 1.7 1.9
v -1 0 1.9
v -1 0.1 1.9
v -1 0.3 1.9
v -1 0.4 1.9
v -1 1.7 1.9
v -2 0 1.7
v -2 1.7 1.7
v -1.9 0 1.7
v -1.9 1.7 1.7
v -1 0 1.7
v -1 0.4 1.7
v -1 0.8 1.7
v -1 1.3 1.7
v -1 1.4 1.7
v -1 1.7 1.7
v -0.9 0 1.7
v -0.9 0.4 1.7
v -0.9 0.8 1.7
v -0.9 1.3 1.7
v -0.9 1.4 1.7
v -0.9 1.7 1.7
v -1.7 0.1 1.3
v -1.7 0.2 1.3
v -1.6 0.1 1.3
v -1.6 0.2 1.3
v -1.3 0.1 1.3
v -1.3 0.2 1.3
v -1.2 0.1 1.3
v -1.2 0.2 1.3
v -1.8 0 1.2
v -1.8 0.1 1.2
v -1.7 0 1.2
v -1.7 0.1 1.2
v -1.6 0.1 1.2
v -1.6 0.2 1.2
v -1.3 0.1 1.2
v -1.3 0.2 1.2
v -1.2 0 1.2
v -1.2 0.1 1.2
v -1.1 0 1.2
v -1.1 0.1 1.2
v -1.7 0 1.1
v -1.7 0.1 1.1
v -1.6 0 1.1
v -1.6 0.1 1.1
v -1.3 0 1.1
v -1.3 0.1 1.1
v -1.2 0 1.1
v -1.2 0.1 1.1
v -1.7 0 1.8
v -1.7 0.1 1.8
v -1.6 0 1.8
v -1.6 0.1 1.8
v -1.3 0 1.8
v -1.3 0.1 1.8
v -1.2 0 1.8
v -1.2 0.1 1.8
v -1.8 0 1.7
v -1.8 0.1 1.7
v -1.7 0 1.7
v -1.7 0.1 1.7
v -1.6 0.1 1.7
v -1.6 0.2 1.7
v -1.3 0.1 1.7
v -1.3 0.2 1.7
v -1.2 0 1.7
v -1.2 0.1 1.7
v -1.1 0 1.7
v -1.1 0.1 1.7
v -1.7 0.1 1.6
v -1.7 0.2 1.6
v -1.6 0.1 1.6
v -1.6 0.2 1.6
v -1.3 0.1 1.6
v -1.3 0.2 1.6
v -1.2 0.1 1.6
v -1.2 0.2 1.6
v -2 0 1.2
v -2 1.3 1.2
v -2 1.4 1.2
v -2 1.7 1.2
v -1.9 0 1.2
v -1.9 0.5 1.2
v -1.9 1.3 1.2
v -1.9 1.4 1.2
v -1.9 1.7 1.2
v -1 0 1.2
v -1 1.7 1.2
v -0.9 0 1.2
v -0.9 1.7 1.2
v -1.9 0 1
v -1.9 0.1 1
v -1.9 0.4 1
v -1.9 0.5 1
v -1.9 1.7 1
v -1.7 0 1
v -1.7 0.1 1
v -1.7 0.4 1
v -1.7 0.5 1
v -1.7 1.1 1
v -1.7 1.2 1
v -1.7 1.7 1
v -1.2 0 1
v -1.2 1.7 1
v -1 0 1
v -1 1.7 1
v -1.7 0 0.9
v -1.7 0.5 0.9
v -1.7 1.1 0.9
v -1.7 1.2 0.9
v -1.7 1.7 0.9
v -1.6 0 0.9
v -1.6 0.5 0.9
v -1.6 0.6 0.9
v -1.5 0.9 0.9
v -1.5 1 0.9
v -1.5 1.3 0.9
v -1.5 1.4 0.9
v -1.4 0.5 0.9
v -1.4 0.6 0.9
v -1.4 1.1 0.9
v -1.4 1.2 0.9
v -1.3 0.9 0.9
v -1.3 1 0.9
v -1.3 1.3 0.9
v -1.3 1.4 0.9
v -1.2 0 0.9
v -1.2 1.7 0.9
v -1.7 0 2
v -1.3 0 2
v -1.2 0 2
v -1.9 0 1.9
v -1.7 0 1.9
v -1.6 0 1.9
v -1.3 0 1.9
v -1.2 0 1.9
v -1 0 1.9
v -1.8 0 1.8
v -1.7 0 1.8
v -1.6 0 1.8
v -1.3 0 1.8
v -1.2 0 1.8
v -1.1 0 1.8
v -2 0 1.7
v -1.9 0 1.7
v -1.8 0 1.7
v -1.7 0 1.7
v -1.2 0 1.7
v -1.1 0 1.7
v -1 0 1.7
v -0.9 0 1.7
v -1.9 0 1.6
v -1.8 0 1.6
v -1.9 0 1.3
v -1.8 0 1.3
v -2 0 1.2
v -1.9 0 1.2
v -1.8 0 1.2
v -1.7 0 1.2
v -1.2 0 1.2
v -1.1 0 1.2
v -1 0 1.2
v -0.9 0 1.2
v -1.8 0 1.1
v -1.7 0 1.1
v -1.6 0 1.1
v -1.3 0 1.1
v -1.2 0 1.1
v -1.1 0 1.1
v -1.9 0 1
v -1.7 0 1
v -1.6 0 1
v -1.3 0 1
v -1.2 0 1
v -1 0 1
v -1.7 0 0.9
v -1.6 0 0.9
v -1.2 0 0.9
v -1.7 0.1 1.8
v -1.6 0.1 1.8
v -1.3 0.1 1.8
v -1.2 0.1 1.8
v -1.8 0.1 1.7
v -1.7 0.1 1.7
v -1.6 0.1 1.7
v -1.3 0.1 1.7
v -1.2 0.1 1.7
v -1.1 0.1 1.7
v -1.8 0.1 1.6
v -1.7 0.1 1.6
v -1.6 0.1 1.6
v -1.3 0.1 1.6
v -1.2 0.1 1.6
v -1.8 0.1 1.3
v -1.7 0.1 1.3
v -1.6 0.1 1.3
v -1.3 0.1 1.3
v -1.2 0.1 1.3
v -1.8 0.1 1.2
v -1.7 0.1 1.2
v -1.6 0.1 1.2
v -1.3 0.1 1.2
v -1.2 0.1 1.2
v -1.1 0.1 1.2
v -1.7 0.1 1.1
v -1.6 0.1 1.1
v -1.3 0.1 1.1
v -1.2 0.1 1.1
v -1.6 0.2 1.7
v -1.3 0.2 1.7
v -1.7 0.2 1.6
v -1.6 0.2 1.6
v -1.3 0.2 1.6
v -1.2 0.2 1.6
v -1.7 0.2 1.3
v -1.6 0.2 1.3
v -1.3 0.2 1.3
v -1.2 0.2 1.3
v -1.6 0.2 1.2
v -1.3 0.2 1.2
v -1.7 1.7 2
v -1.2 1.7 2
v -1.9 1.7 1.9
v -1.7 1.7 1.9
v -1.6 1.7 1.9
v -1.3 1.7 1.9
v -1.2 1.7 1.9
v -1 1.7 1.9
v -1.8 1.7 1.8
v -1.6 1.7 1.8
v -1.5 1.7 1.8
v -1.4 1.7 1.8
v -2 1.7 1.7
v -1.9 1.7 1.7
v -1.6 1.7 1.7
v -1.5 1.7 1.7
v -1.4 1.7 1.7
v -1.3 1.7 1.7
v -1.1 1.7 1.7
v -1 1.7 1.7
v -0.9 1.7 1.7
v -1.9 1.7 1.6
v -1.8 1.7 1.6
v -1.6 1.7 1.5
v -1.5 1.7 1.5
v -1.4 1.7 1.5
v -1.3 1.7 1.5
v -1.6 1.7 1.4
v -1.5 1.7 1.4
v -1.4 1.7 1.4
v -1.3 1.7 1.4
v -1.9 1.7 1.3
v -1.8 1.7 1.3
v -2 1.7 1.2
v -1.9 1.7 1.2
v -1.5 1.7 1.2
v -1.4 1.7 1.2
v -1 1.7 1.2
v -0.9 1.7 1.2
v -1.8 1.7 1.1
v -1.6 1.7 1.1
v -1.3 1.7 1.1
v -1.1 1.7 1.1
v -1.9 1.7 1
v -1.7 1.7 1
v -1.6 1.7 1
v -1.3 1.7 1
v -1.2 1.7 1
v -1 1.7 1
v -1.7 1.7 0.9
v -1.2 1.7 0.9

# faces
f 3/4/1 2/4/1 1/4/1
f 4/4/1 2/4/1 3/4/1
f 5/4/1 3/4/1 1/4/1
f 6/7/1 4/7/1 3/7/1
f 6/4/1 3/4/1 5/4/1
f 7/7/1 4/7/1 6/7/1
f 8/7/1 4/7/1 7/7/1
f 9/4/1 5/4/1 1/4/1
f 9/7/1 6/7/1 5/7/1
f 9/7/1 7/7/1 6/7/1
f 10/4/1 8/4/1 7/4/1
f 10/7/1 7/7/1 9/7/1
f 11/4/1 9/4/1 1/4/1
f 11/4/1 10/4/1 9/4/1
f 12/4/1 8/4/1 10/4/1
f 12/4/1 10/4/1 11/4/1
f 17/3/1 16/3/1 15/3/1
f 18/3/1 16/3/1 17/3/1
f 19/3/1 17/3/1 15/3/1
f 19/4/1 18/4/1 17/4/1
f 20/4/1 18/4/1 19/4/1
f 21/3/1 19/3/1 15/3/1
f 21/3/1 20/3/1 19/3/1
f 22/3/1 20/3/1 21/3/1
f 23/4/1 22/4/1 21/4/1
f 24/4/1 22/4/1 23/4/1
f 25/4/1 14/4/1 13/4/1
f 26/4/1 14/4/1 25/4/1
f 27/4/1 22/4/1 24/4/1
f 28/4/1 22/4/1 27/4/1
f 33/3/1 32/3/1 31/3/1
f 34/3/1 32/3/1 33/3/1
f 35/3/1 32/3/1 34/3/1
f 36/3/1 32/3/1 35/3/1
f 37/4/1 36/4/1 35/4/1
f 38/4/1 36/4/1 37/4/1
f 39/3/1 38/3/1 37/3/1
f 40/3/1 38/3/1 39/3/1
f 41/4/1 30/4/1 29/4/1
f 42/4/1 30/4/1 41/4/1
f 43/4/1 40/4/1 39/4/1
f 44/4/1 40/4/1 43/4/1
f 49/2/1 46/2/1 45/2/1
f 50/2/1 46/2/1 49/2/1
f 51/2/1 48/2/1 47/2/1
f 52/2/1 48/2/1 51/2/1
f 57/4/1 54/4/1 53/4/1
f 58/4/1 54/4/1 57/4/1
f 61/2/1 56/2/1 55/2/1
f 62/2/1 56/2/1 61/2/1
f 63/2/1 60/2/1 59/2/1
f 64/2/1 60/2/1 63/2/1
f 67/4/1 66/4/1 65/4/1
f 68/4/1 66/4/1 67/4/1
f 69/4/2 70/4/2 73/4/2
f 70/2/2 71/2/2 74/2/2
f 73/4/2 70/4/2 74/4/2
f 71/4/2 72/4/2 75/4/2
f 74/2/2 71/2/2 75/2/2
f 75/4/2 72/4/2 76/4/2
f 77/2/2 78/2/2 81/2/2
f 81/2/2 78/2/2 82/2/2
f 79/2/2 80/2/2 85/2/2
f 85/2/2 80/2/2 86/2/2
f 83/2/2 84/2/2 87/2/2
f 87/2/2 84/2/2 88/2/2
f 89/2/2 90/2/2 93/2/2
f 93/2/2 90/2/2 94/2/2
f 91/2/2 92/2/2 95/2/2
f 95/2/2 92/2/2 96/2/2
f 97/3/2 98/3/2 101/3/2
f 97/3/2 101/3/2 102/3/2
f 97/3/2 102/3/2 103/3/2
f 103/3/2 102/3/2 104/3/2
f 103/4/2 104/4/2 105/4/2
f 105/4/2 104/4/2 106/4/2
f 105/3/2 106/3/2 107/3/2
f 107/3/2 106/3/2 108/3/2
f 107/4/2 108/4/2 109/4/2
f 109/4/2 108/4/2 110/4/2
f 99/4/2 100/4/2 111/4/2
f 111/4/2 100/4/2 112/4/2
f 113/3/2 114/3/2 117/3/2
f 117/3/2 114/3/2 118/3/2
f 117/4/2 118/4/2 119/4/2
f 118/3/2 114/3/2 120/3/2
f 119/4/2 118/4/2 120/4/2
f 119/3/2 120/3/2 121/3/2
f 120/3/2 114/3/2 122/3/2
f 121/3/2 120/3/2 122/3/2
f 121/4/2 122/4/2 123/4/2
f 121/4/2 123/4/2 124/4/2
f 121/4/2 124/4/2 125/4/2
f 121/4/2 125/4/2 126/4/2
f 126/4/2 125/4/2 127/4/2
f 115/4/2 116/4/2 128/4/2
f 128/4/2 116/4/2 129/4/2
f 130/4/2 131/4/2 132/4/2
f 132/4/2 131/4/2 133/4/2
f 130/4/2 132/4/2 134/4/2
f 132/8/2 133/8/2 135/8/2
f 134/4/2 132/4/2 135/4/2
f 135/8/2 133/8/2 136/8/2
f 133/4/2 131/4/2 137/4/2
f 136/8/2 133/8/2 137/8/2
f 137/4/2 131/4/2 138/4/2
f 135/8/2 136/8/2 139/8/2
f 134/8/2 135/8/2 139/8/2
f 136/4/2 137/4/2 140/4/2
f 139/8/2 136/8/2 140/8/2
f 137/8/2 138/8/2 141/8/2
f 140/4/2 137/4/2 141/4/2
f 138/4/2 131/4/2 142/4/2
f 141/8/2 138/8/2 142/8/2
f 140/4/2 141/4/2 143/4/2
f 139/4/2 140/4/2 143/4/2
f 141/4/2 142/4/2 143/4/2
f 142/4/2 131/4/2 144/4/2
f 143/4/2 142/4/2 144/4/2
f 139/4/2 143/4/2 145/4/2
f 134/8/2 139/8/2 145/8/2
f 145/4/2 143/4/2 146/4/2
f 143/8/2 144/8/2 147/8/2
f 146/4/2 143/4/2 147/4/2
f 144/4/2 131/4/2 148/4/2
f 147/8/2 144/8/2 148/8/2
f 145/8/2 146/8/2 149/8/2
f 134/8/2 145/8/2 149/8/2
f 149/8/2 146/8/2 150/8/2
f 146/4/2 147/4/2 151/4/2
f 150/8/2 146/8/2 151/8/2
f 147/4/2 148/4/2 151/4/2
f 151/4/2 148/4/2 152/4/2
f 149/4/2 150/4/2 153/4/2
f 150/8/2 151/8/2 153/8/2
f 151/8/2 152/8/2 153/8/2
f 153/8/2 152/8/2 154/8/2
f 153/4/2 154/4/2 155/4/2
f 154/8/2 152/8/2 155/8/2
f 152/4/2 148/4/2 156/4/2
f 155/8/2 152/8/2 156/8/2
f 153/4/2 155/4/2 157/4/2
f 149/4/2 153/4/2 157/4/2
f 155/4/2 156/4/2 157/4/2
f 156/4/2 148/4/2 158/4/2
f 157/4/2 156/4/2 158/4/2
f 157/7/2 158/7/2 159/7/2
f 159/7/2 158/7/2 160/7/2
f 158/4/2 148/4/2 161/4/2
f 160/7/2 158/7/2 161/7/2
f 148/4/2 131/4/2 162/4/2
f 161/4/2 148/4/2 162/4/2
f 160/7/2 161/7/2 163/7/2
f 159/4/2 160/4/2 163/4/2
f 161/7/2 162/7/2 163/7/2
f 162/4/2 131/4/2 164/4/2
f 163/7/2 162/7/2 164/7/2
f 159/4/2 163/4/2 165/4/2
f 163/4/2 164/4/2 165/4/2
f 164/4/2 131/4/2 166/4/2
f 165/4/2 164/4/2 166/4/2
f 169/4/3 168/4/3 167/4/3
f 170/4/3 168/4/3 169/4/3
f 171/4/3 168/4/3 170/4/3
f 172/4/3 168/4/3 171/4/3
f 173/4/3 169/4/3 167/4/3
f 174/4/3 169/4/3 173/4/3
f 175/4/3 171/4/3 170/4/3
f 176/4/3 171/4/3 175/4/3
f 177/3/3 170/3/3 169/3/3
f 177/4/3 169/4/3 174/4/3
f 178/4/3 175/4/3 170/4/3
f 178/3/3 170/3/3 177/3/3
f 179/4/3 171/4/3 176/4/3
f 179/3/3 172/3/3 171/3/3
f 180/4/3 168/4/3 172/4/3
f 180/3/3 172/3/3 179/3/3
f 181/4/3 173/4/3 167/4/3
f 182/4/3 173/4/3 181/4/3
f 183/3/3 174/3/3 173/3/3
f 183/4/3 173/4/3 182/4/3
f 184/4/3 178/4/3 177/4/3
f 184/3/3 174/3/3 183/3/3
f 184/4/3 177/4/3 174/4/3
f 185/3/3 182/3/3 181/3/3
f 186/4/3 183/4/3 182/4/3
f 186/3/3 182/3/3 185/3/3
f 186/4/3 184/4/3 183/4/3
f 187/4/3 175/4/3 178/4/3
f 187/4/3 184/4/3 186/4/3
f 187/3/3 176/3/3 175/3/3
f 187/4/3 178/4/3 184/4/3
f 188/4/3 179/4/3 176/4/3
f 188/3/3 176/3/3 187/3/3
f 188/4/3 180/4/3 179/4/3
f 189/4/3 168/4/3 180/4/3
f 189/4/3 180/4/3 188/4/3
f 192/4/3 191/4/3 190/4/3
f 193/4/3 191/4/3 192/4/3
f 201/3/3 195/3/3 194/3/3
f 202/4/3 196/4/3 195/4/3
f 202/3/3 195/3/3 201/3/3
f 203/3/3 197/3/3 196/3/3
f 203/4/3 196/4/3 202/4/3
f 204/4/3 200/4/3 199/4/3
f 204/3/3 197/3/3 203/3/3
f 204/4/3 198/4/3 197/4/3
f 204/4/3 199/4/3 198/4/3
f 205/4/3 200/4/3 204/4/3
f 208/4/3 207/4/3 206/4/3
f 209/4/3 207/4/3 208/4/3
f 216/4/3 211/4/3 210/4/3
f 217/8/3 212/8/3 211/8/3
f 217/4/3 211/4/3 216/4/3
f 218/4/3 213/4/3 212/4/3
f 218/8/3 212/8/3 217/8/3
f 219/7/3 214/7/3 213/7/3
f 219/4/3 213/4/3 218/4/3
f 220/4/3 215/4/3 214/4/3
f 220/7/3 214/7/3 219/7/3
f 221/4/3 215/4/3 220/4/3
f 224/2/3 223/2/3 222/2/3
f 225/2/3 223/2/3 224/2/3
f 228/2/3 227/2/3 226/2/3
f 229/2/3 227/2/3 228/2/3
f 232/2/3 231/2/3 230/2/3
f 233/2/3 231/2/3 232/2/3
f 236/2/3 235/2/3 234/2/3
f 237/2/3 235/2/3 236/2/3
f 240/2/3 239/2/3 238/2/3
f 241/2/3 239/2/3 240/2/3
f 244/4/3 243/4/3 242/4/3
f 245/4/3 243/4/3 244/4/3
f 246/2/3 245/2/3 244/2/3
f 247/2/3 245/2/3 246/2/3
f 248/4/3 247/4/3 246/4/3
f 249/4/3 247/4/3 248/4/3
f 250/4/4 251/4/4 252/4/4
f 252/4/4 251/4/4 253/4/4
f 252/2/4 253/2/4 254/2/4
f 254/2/4 253/2/4 255/2/4
f 254/4/4 255/4/4 256/4/4
f 256/4/4 255/4/4 257/4/4
f 258/2/4 259/2/4 260/2/4
f 260/2/4 259/2/4 261/2/4
f 262/2/4 263/2/4 264/2/4
f 264/2/4 263/2/4 265/2/4
f 266/4/4 267/4/4 268/4/4
f 268/4/4 267/4/4 269/4/4
f 270/2/4 271/2/4 272/2/4
f 272/2/4 271/2/4 273/2/4
f 274/2/4 275/2/4 276/2/4
f 276/2/4 275/2/4 277/2/4
f 278/4/4 279/4/4 282/4/4
f 282/4/4 279/4/4 283/4/4
f 279/7/4 280/7/4 284/7/4
f 283/4/4 279/4/4 284/4/4
f 280/4/4 281/4/4 285/4/4
f 284/7/4 280/7/4 285/7/4
f 285/4/4 281/4/4 286/4/4
f 287/4/4 288/4/4 289/4/4
f 289/4/4 288/4/4 290/4/4
f 291/3/4 292/3/4 296/3/4
f 292/4/4 293/4/4 297/4/4
f 296/3/4 292/3/4 297/3/4
f 293/3/4 294/3/4 298/3/4
f 297/4/4 293/4/4 298/4/4
f 294/4/4 295/4/4 299/4/4
f 298/3/4 294/3/4 299/3/4
f 299/4/4 295/4/4 300/4/4
f 300/4/4 295/4/4 301/4/4
f 301/4/4 295/4/4 302/4/4
f 303/4/4 304/4/4 305/4/4
f 305/4/4 304/4/4 306/4/4
f 307/3/4 308/3/4 312/3/4
f 308/4/4 309/4/4 313/4/4
f 312/3/4 308/3/4 313/3/4
f 313/4/4 309/4/4 314/4/4
f 314/4/4 309/4/4 315/4/4
f 315/4/4 309/4/4 316/4/4
f 310/4/4 311/4/4 317/4/4
f 317/4/4 311/4/4 318/4/4
f 312/4/4 313/4/4 319/4/4
f 313/3/4 314/3/4 319/3/4
f 314/4/4 315/4/4 320/4/4
f 319/3/4 314/3/4 320/3/4
f 316/4/4 309/4/4 321/4/4
f 309/3/4 310/3/4 321/3/4
f 310/4/4 317/4/4 322/4/4
f 321/3/4 310/3/4 322/3/4
f 320/4/4 315/4/4 323/4/4
f 319/4/4 320/4/4 323/4/4
f 315/3/4 316/3/4 323/3/4
f 321/4/4 322/4/4 324/4/4
f 323/3/4 316/3/4 324/3/4
f 316/4/4 321/4/4 324/4/4
f 322/4/4 317/4/4 325/4/4
f 324/4/4 322/4/4 325/4/4
f 317/3/4 318/3/4 325/3/4
f 318/4/4 311/4/4 326/4/4
f 325/3/4 318/3/4 326/3/4
f 323/4/4 324/4/4 327/4/4
f 319/4/4 323/4/4 327/4/4
f 325/4/4 326/4/4 327/4/4
f 312/4/4 319/4/4 327/4/4
f 324/4/4 325/4/4 327/4/4
f 326/4/4 311/4/4 328/4/4
f 327/4/4 326/4/4 328/4/4
f 333/4/5 330/4/5 329/4/5
f 334/4/5 330/4/5 333/4/5
f 335/3/5 331/3/5 330/3/5
f 335/4/5 330/4/5 334/4/5
f 336/3/5 331/3/5 335/3/5
f 338/4/5 334/4/5 333/4/5
f 338/4/5 333/4/5 332/4/5
f 339/4/5 334/4/5 338/4/5
f 340/2/5 335/2/5 334/2/5
f 340/4/5 334/4/5 339/4/5
f 341/4/5 336/4/5 335/4/5
f 341/2/5 335/2/5 340/2/5
f 342/3/5 337/3/5 336/3/5
f 342/4/5 336/4/5 341/4/5
f 343/3/5 337/3/5 342/3/5
f 345/4/5 338/4/5 332/4/5
f 346/2/5 339/2/5 338/2/5
f 346/4/5 338/4/5 345/4/5
f 347/2/5 339/2/5 346/2/5
f 348/4/5 343/4/5 342/4/5
f 349/3/5 337/3/5 343/3/5
f 349/4/5 343/4/5 348/4/5
f 350/3/5 337/3/5 349/3/5
f 352/4/5 345/4/5 344/4/5
f 352/4/5 346/4/5 345/4/5
f 353/4/5 346/4/5 352/4/5
f 354/4/5 352/4/5 344/4/5
f 354/2/5 353/2/5 352/2/5
f 355/2/5 353/2/5 354/2/5
f 356/4/5 354/4/5 344/4/5
f 356/4/5 355/4/5 354/4/5
f 357/4/5 355/4/5 356/4/5
f 358/4/5 355/4/5 357/4/5
f 361/4/5 351/4/5 350/4/5
f 361/4/5 350/4/5 349/4/5
f 362/4/5 351/4/5 361/4/5
f 363/4/5 351/4/5 362/4/5
f 364/2/5 359/2/5 358/2/5
f 364/3/5 358/3/5 357/3/5
f 365/2/5 359/2/5 364/2/5
f 368/2/5 361/2/5 360/2/5
f 369/4/5 362/4/5 361/4/5
f 369/2/5 361/2/5 368/2/5
f 370/3/5 364/3/5 357/3/5
f 370/3/5 365/3/5 364/3/5
f 371/4/5 366/4/5 365/4/5
f 371/3/5 365/3/5 370/3/5
f 372/2/5 367/2/5 366/2/5
f 372/4/5 366/4/5 371/4/5
f 373/4/5 368/4/5 367/4/5
f 373/2/5 367/2/5 372/2/5
f 373/4/5 369/4/5 368/4/5
f 374/4/5 369/4/5 373/4/5
f 375/4/5 362/4/5 369/4/5
f 375/4/5 369/4/5 374/4/5
f 376/3/5 372/3/5 371/3/5
f 377/4/5 373/4/5 372/4/5
f 377/3/5 372/3/5 376/3/5
f 377/4/5 374/4/5 373/4/5
f 378/4/5 374/4/5 377/4/5
f 384/2/5 380/2/5 379/2/5
f 384/2/5 381/2/5 380/2/5
f 385/2/5 381/2/5 384/2/5
f 386/4/5 382/4/5 381/4/5
f 386/2/5 381/2/5 385/2/5
f 387/4/5 382/4/5 386/4/5
f 389/2/5 385/2/5 384/2/5
f 389/2/5 384/2/5 383/2/5
f 390/2/5 385/2/5 389/2/5
f 391/2/5 385/2/5 390/2/5
f 392/2/5 388/2/5 387/2/5
f 392/2/5 387/2/5 386/2/5
f 393/2/5 388/2/5 392/2/5
f 394/2/5 390/2/5 389/2/5
f 395/2/5 390/2/5 394/2/5
f 398/2/5 388/2/5 393/2/5
f 399/2/5 396/2/5 395/2/5
f 399/2/5 395/2/5 394/2/5
f 400/2/5 396/2/5 399/2/5
f 401/2/5 396/2/5 400/2/5
f 402/2/5 398/2/5 397/2/5
f 403/2/5 388/2/5 398/2/5
f 403/2/5 398/2/5 402/2/5
f 404/2/5 388/2/5 403/2/5
f 405/2/5 401/2/5 400/2/5
f 405/2/5 402/2/5 401/2/5
f 405/2/5 403/2/5 402/2/5
f 406/2/5 403/2/5 405/2/5
f 407/2/5 403/2/5 406/2/5
f 408/2/5 403/2/5 407/2/5
f 412/2/5 410/2/5 409/2/5
f 413/2/5 410/2/5 412/2/5
f 415/2/5 412/2/5 411/2/5
f 415/2/5 414/2/5 413/2/5
f 415/2/5 413/2/5 412/2/5
f 416/2/5 414/2/5 415/2/5
f 417/2/5 414/2/5 416/2/5
f 418/2/5 414/2/5 417/2/5
f 419/2/5 417/2/5 416/2/5
f 420/2/5 417/2/5 419/2/5
f 421/4/6 422/4/6 424/4/6
f 424/4/6 422/4/6 425/4/6
f 425/4/6 422/4/6 426/4/6
f 426/4/6 422/4/6 427/4/6
f 423/4/6 424/4/6 429/4/6
f 424/4/6 425/4/6 429/4/6
f 425/2/6 426/2/6 430/2/6
f 429/4/6 425/4/6 430/4/6
f 430/2/6 426/2/6 431/2/6
f 431/2/6 426/2/6 432/2/6
f 423/4/6 429/4/6 434/4/6
f 429/2/6 430/2/6 435/2/6
f 430/2/6 431/2/6 435/2/6
f 431/1/6 432/1/6 436/1/6
f 435/2/6 431/2/6 436/2/6
f 432/2/6 426/2/6 437/2/6
f 436/1/6 432/1/6 437/1/6
f 427/4/6 428/4/6 438/4/6
f 437/2/6 426/2/6 438/2/6
f 426/4/6 427/4/6 438/4/6
f 438/4/6 428/4/6 439/4/6
f 439/4/6 428/4/6 440/4/6
f 433/4/6 434/4/6 442/4/6
f 434/4/6 429/4/6 442/4/6
f 429/2/6 435/2/6 443/2/6
f 442/4/6 429/4/6 443/4/6
f 436/1/6 437/1/6 444/1/6
f 443/2/6 435/2/6 444/2/6
f 442/2/6 443/2/6 444/2/6
f 435/1/6 436/1/6 444/1/6
f 437/1/6 438/1/6 444/1/6
f 444/1/6 438/1/6 445/1/6
f 445/1/6 438/1/6 446/1/6
f 438/2/6 439/2/6 447/2/6
f 446/1/6 438/1/6 447/1/6
f 442/2/6 444/2/6 448/2/6
f 444/2/6 445/2/6 448/2/6
f 445/6/6 446/6/6 449/6/6
f 448/2/6 445/2/6 449/2/6
f 446/2/6 447/2/6 450/2/6
f 449/6/6 446/6/6 450/6/6
f 447/2/6 439/2/6 451/2/6
f 450/2/6 447/2/6 451/2/6
f 442/2/6 448/2/6 452/2/6
f 433/4/6 442/4/6 452/4/6
f 452/2/6 448/2/6 453/2/6
f 433/4/6 452/4/6 454/4/6
f 452/4/6 453/4/6 454/4/6
f 454/4/6 453/4/6 455/4/6
f 449/2/6 450/2/6 456/2/6
f 448/6/6 449/6/6 456/6/6
f 450/6/6 451/6/6 457/6/6
f 456/2/6 450/2/6 457/2/6
f 440/4/6 441/4/6 458/4/6
f 439/4/6 440/4/6 458/4/6
f 458/4/6 441/4/6 459/4/6
f 455/4/6 453/4/6 460/4/6
f 453/2/6 448/2/6 460/2/6
f 448/6/6 456/6/6 461/6/6
f 460/2/6 448/2/6 461/2/6
f 456/6/6 457/6/6 461/6/6
f 451/2/6 439/2/6 462/2/6
f 461/6/6 457/6/6 462/6/6
f 457/6/6 451/6/6 462/6/6
f 439/4/6 458/4/6 463/4/6
f 462/2/6 439/2/6 463/2/6
f 460/4/6 461/4/6 464/4/6
f 455/4/6 460/4/6 464/4/6
f 464/4/6 461/4/6 465/4/6
f 461/2/6 462/2/6 466/2/6
f 465/4/6 461/4/6 466/4/6
f 462/4/6 463/4/6 467/4/6
f 466/2/6 462/2/6 467/2/6
f 467/4/6 463/4/6 468/4/6
f 463/4/6 458/4/6 469/4/6
f 468/4/6 463/4/6 469/4/6
f 467/4/6 468/4/6 470/4/6
f 465/4/6 466/4/6 470/4/6
f 466/4/6 467/4/6 470/4/6
f 470/4/6 468/4/6 471/4/6
