# MagicaVoxel @ Ephtracy

# group
o 

# material
mtllib ED_Drive.mtl
usemtl palette

# normals
vn -1 0 0
vn 1 0 0
vn 0 0 1
vn 0 0 -1
vn 0 -1 0
vn 0 1 0

# texcoords
vt 0.767578 0.5
vt 0.787109 0.5
vt 0.876953 0.5
vt 0.880859 0.5
vt 0.884766 0.5
vt 0.900391 0.5

# verts
v 0.9 1.4 -1.2
v 0.9 1.4 -1.7
v 0.9 1.5 -1.3
v 0.9 1.5 -1.6
v 0.9 1.6 -1.4
v 0.9 1.6 -1.5
v 0.9 2.9 -1.4
v 0.9 2.9 -1.5
v 0.9 3 -1.3
v 0.9 3 -1.6
v 0.9 3.1 -1.2
v 0.9 3.1 -1.7
v 1 1.4 -1
v 1 1.4 -1.2
v 1 1.4 -1.7
v 1 1.4 -1.9
v 1 1.5 -1.1
v 1 1.5 -1.2
v 1 1.5 -1.7
v 1 1.5 -1.8
v 1 3 -1.1
v 1 3 -1.2
v 1 3 -1.7
v 1 3 -1.8
v 1 3.1 -1
v 1 3.1 -1.2
v 1 3.1 -1.7
v 1 3.1 -1.9
v 1.2 1.4 -0.9
v 1.2 1.4 -1
v 1.2 1.4 -1.9
v 1.2 1.4 -2
v 1.2 1.5 -1
v 1.2 1.5 -1.9
v 1.2 3 -1
v 1.2 3 -1.9
v 1.2 3.1 -0.9
v 1.2 3.1 -1
v 1.2 3.1 -1.9
v 1.2 3.1 -2
v 1.6 1.5 -1.2
v 1.6 1.5 -1.3
v 1.6 1.5 -1.6
v 1.6 1.5 -1.7
v 1.6 1.6 -1.2
v 1.6 1.6 -1.3
v 1.6 1.6 -1.6
v 1.6 1.6 -1.7
v 1.7 1.4 -1.1
v 1.7 1.4 -1.2
v 1.7 1.4 -1.7
v 1.7 1.4 -1.8
v 1.7 1.5 -1.1
v 1.7 1.5 -1.2
v 1.7 1.5 -1.3
v 1.7 1.5 -1.6
v 1.7 1.5 -1.7
v 1.7 1.5 -1.8
v 1.7 1.6 -1.3
v 1.7 1.6 -1.6
v 1.8 1.4 -1.2
v 1.8 1.4 -1.7
v 1.8 1.5 -1.2
v 1.8 1.5 -1.7
v 1.1 1.4 -1.2
v 1.1 1.4 -1.7
v 1.1 1.5 -1.2
v 1.1 1.5 -1.7
v 1.2 1.4 -1.1
v 1.2 1.4 -1.2
v 1.2 1.4 -1.7
v 1.2 1.4 -1.8
v 1.2 1.5 -1.1
v 1.2 1.5 -1.2
v 1.2 1.5 -1.3
v 1.2 1.5 -1.6
v 1.2 1.5 -1.7
v 1.2 1.5 -1.8
v 1.2 1.6 -1.3
v 1.2 1.6 -1.6
v 1.3 1.5 -1.2
v 1.3 1.5 -1.3
v 1.3 1.5 -1.6
v 1.3 1.5 -1.7
v 1.3 1.6 -1.2
v 1.3 1.6 -1.3
v 1.3 1.6 -1.6
v 1.3 1.6 -1.7
v 1.7 1.4 -0.9
v 1.7 1.4 -1
v 1.7 1.4 -1.9
v 1.7 1.4 -2
v 1.7 1.5 -1
v 1.7 1.5 -1.9
v 1.7 3 -1
v 1.7 3 -1.9
v 1.7 3.1 -0.9
v 1.7 3.1 -1
v 1.7 3.1 -1.9
v 1.7 3.1 -2
v 1.9 1.4 -1
v 1.9 1.4 -1.2
v 1.9 1.4 -1.7
v 1.9 1.4 -1.9
v 1.9 1.5 -1.1
v 1.9 1.5 -1.2
v 1.9 1.5 -1.7
v 1.9 1.5 -1.8
v 1.9 3 -1.1
v 1.9 3 -1.2
v 1.9 3 -1.7
v 1.9 3 -1.8
v 1.9 3.1 -1
v 1.9 3.1 -1.2
v 1.9 3.1 -1.7
v 1.9 3.1 -1.9
v 2 1.4 -1.2
v 2 1.4 -1.7
v 2 1.5 -1.3
v 2 1.5 -1.6
v 2 1.6 -1.4
v 2 1.6 -1.5
v 2 2.9 -1.4
v 2 2.9 -1.5
v 2 3 -1.3
v 2 3 -1.6
v 2 3.1 -1.2
v 2 3.1 -1.7
v 1.2 1.4 -0.9
v 1.2 3.1 -0.9
v 1.3 1.5 -0.9
v 1.3 3 -0.9
v 1.4 1.6 -0.9
v 1.4 2.9 -0.9
v 1.5 1.6 -0.9
v 1.5 2.9 -0.9
v 1.6 1.5 -0.9
v 1.6 3 -0.9
v 1.7 1.4 -0.9
v 1.7 3.1 -0.9
v 1 1.4 -1
v 1 3.1 -1
v 1.1 1.5 -1
v 1.1 3 -1
v 1.2 1.4 -1
v 1.2 1.5 -1
v 1.2 3 -1
v 1.2 3.1 -1
v 1.7 1.4 -1
v 1.7 1.5 -1
v 1.7 3 -1
v 1.7 3.1 -1
v 1.8 1.5 -1
v 1.8 3 -1
v 1.9 1.4 -1
v 1.9 3.1 -1
v 0.9 1.4 -1.2
v 0.9 3.1 -1.2
v 1 1.4 -1.2
v 1 1.5 -1.2
v 1 3 -1.2
v 1 3.1 -1.2
v 1.9 1.4 -1.2
v 1.9 1.5 -1.2
v 1.9 3 -1.2
v 1.9 3.1 -1.2
v 2 1.4 -1.2
v 2 3.1 -1.2
v 1.2 1.5 -1.6
v 1.2 1.6 -1.6
v 1.3 1.5 -1.6
v 1.3 1.6 -1.6
v 1.6 1.5 -1.6
v 1.6 1.6 -1.6
v 1.7 1.5 -1.6
v 1.7 1.6 -1.6
v 1.1 1.4 -1.7
v 1.1 1.5 -1.7
v 1.2 1.4 -1.7
v 1.2 1.5 -1.7
v 1.3 1.5 -1.7
v 1.3 1.6 -1.7
v 1.6 1.5 -1.7
v 1.6 1.6 -1.7
v 1.7 1.4 -1.7
v 1.7 1.5 -1.7
v 1.8 1.4 -1.7
v 1.8 1.5 -1.7
v 1.2 1.4 -1.8
v 1.2 1.5 -1.8
v 1.7 1.4 -1.8
v 1.7 1.5 -1.8
v 1.2 1.4 -1.1
v 1.2 1.5 -1.1
v 1.7 1.4 -1.1
v 1.7 1.5 -1.1
v 1.1 1.4 -1.2
v 1.1 1.5 -1.2
v 1.2 1.4 -1.2
v 1.2 1.5 -1.2
v 1.3 1.5 -1.2
v 1.3 1.6 -1.2
v 1.6 1.5 -1.2
v 1.6 1.6 -1.2
v 1.7 1.4 -1.2
v 1.7 1.5 -1.2
v 1.8 1.4 -1.2
v 1.8 1.5 -1.2
v 1.2 1.5 -1.3
v 1.2 1.6 -1.3
v 1.3 1.5 -1.3
v 1.3 1.6 -1.3
v 1.6 1.5 -1.3
v 1.6 1.6 -1.3
v 1.7 1.5 -1.3
v 1.7 1.6 -1.3
v 0.9 1.4 -1.7
v 0.9 3.1 -1.7
v 1 1.4 -1.7
v 1 1.5 -1.7
v 1 3 -1.7
v 1 3.1 -1.7
v 1.9 1.4 -1.7
v 1.9 1.5 -1.7
v 1.9 3 -1.7
v 1.9 3.1 -1.7
v 2 1.4 -1.7
v 2 3.1 -1.7
v 1 1.4 -1.9
v 1 3.1 -1.9
v 1.1 1.5 -1.9
v 1.1 3 -1.9
v 1.2 1.4 -1.9
v 1.2 1.5 -1.9
v 1.2 3 -1.9
v 1.2 3.1 -1.9
v 1.7 1.4 -1.9
v 1.7 1.5 -1.9
v 1.7 3 -1.9
v 1.7 3.1 -1.9
v 1.8 1.5 -1.9
v 1.8 3 -1.9
v 1.9 1.4 -1.9
v 1.9 3.1 -1.9
v 1.2 1.4 -2
v 1.2 3.1 -2
v 1.3 1.5 -2
v 1.3 3 -2
v 1.4 1.6 -2
v 1.4 2.9 -2
v 1.5 1.6 -2
v 1.5 2.9 -2
v 1.6 1.5 -2
v 1.6 3 -2
v 1.7 1.4 -2
v 1.7 3.1 -2
v 1.2 1.4 -0.9
v 1.7 1.4 -0.9
v 1 1.4 -1
v 1.2 1.4 -1
v 1.7 1.4 -1
v 1.9 1.4 -1
v 1.1 1.4 -1.1
v 1.2 1.4 -1.1
v 1.7 1.4 -1.1
v 1.8 1.4 -1.1
v 0.9 1.4 -1.2
v 1 1.4 -1.2
v 1.1 1.4 -1.2
v 1.2 1.4 -1.2
v 1.7 1.4 -1.2
v 1.8 1.4 -1.2
v 1.9 1.4 -1.2
v 2 1.4 -1.2
v 0.9 1.4 -1.7
v 1 1.4 -1.7
v 1.1 1.4 -1.7
v 1.2 1.4 -1.7
v 1.7 1.4 -1.7
v 1.8 1.4 -1.7
v 1.9 1.4 -1.7
v 2 1.4 -1.7
v 1.1 1.4 -1.8
v 1.2 1.4 -1.8
v 1.7 1.4 -1.8
v 1.8 1.4 -1.8
v 1 1.4 -1.9
v 1.2 1.4 -1.9
v 1.7 1.4 -1.9
v 1.9 1.4 -1.9
v 1.2 1.4 -2
v 1.7 1.4 -2
v 1.2 1.5 -1.1
v 1.7 1.5 -1.1
v 1.1 1.5 -1.2
v 1.2 1.5 -1.2
v 1.3 1.5 -1.2
v 1.6 1.5 -1.2
v 1.7 1.5 -1.2
v 1.8 1.5 -1.2
v 1.2 1.5 -1.3
v 1.3 1.5 -1.3
v 1.6 1.5 -1.3
v 1.7 1.5 -1.3
v 1.2 1.5 -1.6
v 1.3 1.5 -1.6
v 1.6 1.5 -1.6
v 1.7 1.5 -1.6
v 1.1 1.5 -1.7
v 1.2 1.5 -1.7
v 1.3 1.5 -1.7
v 1.6 1.5 -1.7
v 1.7 1.5 -1.7
v 1.8 1.5 -1.7
v 1.2 1.5 -1.8
v 1.7 1.5 -1.8
v 1.3 1.6 -1.2
v 1.6 1.6 -1.2
v 1.2 1.6 -1.3
v 1.3 1.6 -1.3
v 1.6 1.6 -1.3
v 1.7 1.6 -1.3
v 1.2 1.6 -1.6
v 1.3 1.6 -1.6
v 1.6 1.6 -1.6
v 1.7 1.6 -1.6
v 1.3 1.6 -1.7
v 1.6 1.6 -1.7
v 1.2 3.1 -0.9
v 1.7 3.1 -0.9
v 1 3.1 -1
v 1.2 3.1 -1
v 1.3 3.1 -1
v 1.6 3.1 -1
v 1.7 3.1 -1
v 1.9 3.1 -1
v 1.1 3.1 -1.1
v 1.3 3.1 -1.1
v 1.4 3.1 -1.1
v 1.5 3.1 -1.1
v 1.6 3.1 -1.1
v 1.7 3.1 -1.1
v 0.9 3.1 -1.2
v 1 3.1 -1.2
v 1.3 3.1 -1.2
v 1.4 3.1 -1.2
v 1.5 3.1 -1.2
v 1.6 3.1 -1.2
v 1.7 3.1 -1.2
v 1.8 3.1 -1.2
v 1.9 3.1 -1.2
v 2 3.1 -1.2
v 1 3.1 -1.3
v 1.1 3.1 -1.3
v 1.8 3.1 -1.3
v 1.9 3.1 -1.3
v 1.3 3.1 -1.4
v 1.4 3.1 -1.4
v 1.5 3.1 -1.4
v 1.6 3.1 -1.4
v 1.3 3.1 -1.5
v 1.4 3.1 -1.5
v 1.5 3.1 -1.5
v 1.6 3.1 -1.5
v 1 3.1 -1.6
v 1.1 3.1 -1.6
v 1.8 3.1 -1.6
v 1.9 3.1 -1.6
v 0.9 3.1 -1.7
v 1 3.1 -1.7
v 1.4 3.1 -1.7
v 1.5 3.1 -1.7
v 1.9 3.1 -1.7
v 2 3.1 -1.7
v 1.1 3.1 -1.8
v 1.3 3.1 -1.8
v 1.6 3.1 -1.8
v 1.8 3.1 -1.8
v 1 3.1 -1.9
v 1.2 3.1 -1.9
v 1.3 3.1 -1.9
v 1.6 3.1 -1.9
v 1.7 3.1 -1.9
v 1.9 3.1 -1.9
v 1.2 3.1 -2
v 1.7 3.1 -2

# faces
f 3/4/1 2/4/1 1/4/1
f 4/4/1 2/4/1 3/4/1
f 5/3/1 4/3/1 3/3/1
f 6/3/1 4/3/1 5/3/1
f 7/3/1 5/3/1 3/3/1
f 7/5/1 6/5/1 5/5/1
f 8/3/1 4/3/1 6/3/1
f 8/5/1 6/5/1 7/5/1
f 9/4/1 3/4/1 1/4/1
f 9/3/1 7/3/1 3/3/1
f 9/3/1 8/3/1 7/3/1
f 10/3/1 4/3/1 8/3/1
f 10/3/1 8/3/1 9/3/1
f 10/4/1 2/4/1 4/4/1
f 11/4/1 9/4/1 1/4/1
f 11/4/1 10/4/1 9/4/1
f 12/4/1 2/4/1 10/4/1
f 12/4/1 10/4/1 11/4/1
f 17/4/1 14/4/1 13/4/1
f 18/4/1 14/4/1 17/4/1
f 19/4/1 16/4/1 15/4/1
f 20/4/1 16/4/1 19/4/1
f 21/3/1 18/3/1 17/3/1
f 21/4/1 17/4/1 13/4/1
f 22/3/1 18/3/1 21/3/1
f 23/3/1 20/3/1 19/3/1
f 24/4/1 16/4/1 20/4/1
f 24/3/1 20/3/1 23/3/1
f 25/4/1 22/4/1 21/4/1
f 25/4/1 21/4/1 13/4/1
f 26/4/1 22/4/1 25/4/1
f 27/4/1 24/4/1 23/4/1
f 28/4/1 16/4/1 24/4/1
f 28/4/1 24/4/1 27/4/1
f 33/4/1 30/4/1 29/4/1
f 34/4/1 32/4/1 31/4/1
f 35/4/1 33/4/1 29/4/1
f 36/4/1 32/4/1 34/4/1
f 37/4/1 35/4/1 29/4/1
f 38/4/1 35/4/1 37/4/1
f 39/4/1 32/4/1 36/4/1
f 40/4/1 32/4/1 39/4/1
f 45/2/1 42/2/1 41/2/1
f 46/2/1 42/2/1 45/2/1
f 47/2/1 44/2/1 43/2/1
f 48/2/1 44/2/1 47/2/1
f 53/2/1 50/2/1 49/2/1
f 54/2/1 50/2/1 53/2/1
f 57/2/1 52/2/1 51/2/1
f 58/2/1 52/2/1 57/2/1
f 59/2/1 56/2/1 55/2/1
f 60/2/1 56/2/1 59/2/1
f 63/2/1 62/2/1 61/2/1
f 64/2/1 62/2/1 63/2/1
f 65/2/2 66/2/2 67/2/2
f 67/2/2 66/2/2 68/2/2
f 69/2/2 70/2/2 73/2/2
f 73/2/2 70/2/2 74/2/2
f 71/2/2 72/2/2 77/2/2
f 77/2/2 72/2/2 78/2/2
f 75/2/2 76/2/2 79/2/2
f 79/2/2 76/2/2 80/2/2
f 81/2/2 82/2/2 85/2/2
f 85/2/2 82/2/2 86/2/2
f 83/2/2 84/2/2 87/2/2
f 87/2/2 84/2/2 88/2/2
f 89/4/2 90/4/2 93/4/2
f 91/4/2 92/4/2 94/4/2
f 89/4/2 93/4/2 95/4/2
f 94/4/2 92/4/2 96/4/2
f 89/4/2 95/4/2 97/4/2
f 97/4/2 95/4/2 98/4/2
f 96/4/2 92/4/2 99/4/2
f 99/4/2 92/4/2 100/4/2
f 101/4/2 102/4/2 105/4/2
f 105/4/2 102/4/2 106/4/2
f 103/4/2 104/4/2 107/4/2
f 107/4/2 104/4/2 108/4/2
f 105/3/2 106/3/2 109/3/2
f 101/4/2 105/4/2 109/4/2
f 109/3/2 106/3/2 110/3/2
f 107/3/2 108/3/2 111/3/2
f 108/4/2 104/4/2 112/4/2
f 111/3/2 108/3/2 112/3/2
f 109/4/2 110/4/2 113/4/2
f 101/4/2 109/4/2 113/4/2
f 113/4/2 110/4/2 114/4/2
f 111/4/2 112/4/2 115/4/2
f 112/4/2 104/4/2 116/4/2
f 115/4/2 112/4/2 116/4/2
f 117/4/2 118/4/2 119/4/2
f 119/4/2 118/4/2 120/4/2
f 119/3/2 120/3/2 121/3/2
f 121/3/2 120/3/2 122/3/2
f 119/3/2 121/3/2 123/3/2
f 121/5/2 122/5/2 123/5/2
f 122/3/2 120/3/2 124/3/2
f 123/5/2 122/5/2 124/5/2
f 117/4/2 119/4/2 125/4/2
f 119/3/2 123/3/2 125/3/2
f 123/3/2 124/3/2 125/3/2
f 124/3/2 120/3/2 126/3/2
f 125/3/2 124/3/2 126/3/2
f 120/4/2 118/4/2 126/4/2
f 117/4/2 125/4/2 127/4/2
f 125/4/2 126/4/2 127/4/2
f 126/4/2 118/4/2 128/4/2
f 127/4/2 126/4/2 128/4/2
f 131/4/3 130/4/3 129/4/3
f 132/4/3 130/4/3 131/4/3
f 133/3/3 132/3/3 131/3/3
f 134/3/3 132/3/3 133/3/3
f 135/3/3 133/3/3 131/3/3
f 135/5/3 134/5/3 133/5/3
f 136/3/3 132/3/3 134/3/3
f 136/5/3 134/5/3 135/5/3
f 137/4/3 131/4/3 129/4/3
f 137/3/3 135/3/3 131/3/3
f 137/3/3 136/3/3 135/3/3
f 138/3/3 132/3/3 136/3/3
f 138/3/3 136/3/3 137/3/3
f 138/4/3 130/4/3 132/4/3
f 139/4/3 137/4/3 129/4/3
f 139/4/3 138/4/3 137/4/3
f 140/4/3 130/4/3 138/4/3
f 140/4/3 138/4/3 139/4/3
f 143/4/3 142/4/3 141/4/3
f 144/4/3 142/4/3 143/4/3
f 145/4/3 143/4/3 141/4/3
f 146/3/3 144/3/3 143/3/3
f 146/4/3 143/4/3 145/4/3
f 147/4/3 142/4/3 144/4/3
f 147/3/3 144/3/3 146/3/3
f 148/4/3 142/4/3 147/4/3
f 153/4/3 150/4/3 149/4/3
f 153/3/3 151/3/3 150/3/3
f 154/4/3 152/4/3 151/4/3
f 154/3/3 151/3/3 153/3/3
f 155/4/3 153/4/3 149/4/3
f 155/4/3 154/4/3 153/4/3
f 156/4/3 152/4/3 154/4/3
f 156/4/3 154/4/3 155/4/3
f 159/4/3 158/4/3 157/4/3
f 160/4/3 158/4/3 159/4/3
f 161/4/3 158/4/3 160/4/3
f 162/4/3 158/4/3 161/4/3
f 167/4/3 164/4/3 163/4/3
f 167/4/3 166/4/3 165/4/3
f 167/4/3 165/4/3 164/4/3
f 168/4/3 166/4/3 167/4/3
f 171/2/3 170/2/3 169/2/3
f 172/2/3 170/2/3 171/2/3
f 175/2/3 174/2/3 173/2/3
f 176/2/3 174/2/3 175/2/3
f 179/2/3 178/2/3 177/2/3
f 180/2/3 178/2/3 179/2/3
f 183/2/3 182/2/3 181/2/3
f 184/2/3 182/2/3 183/2/3
f 187/2/3 186/2/3 185/2/3
f 188/2/3 186/2/3 187/2/3
f 191/2/3 190/2/3 189/2/3
f 192/2/3 190/2/3 191/2/3
f 193/2/4 194/2/4 195/2/4
f 195/2/4 194/2/4 196/2/4
f 197/2/4 198/2/4 199/2/4
f 199/2/4 198/2/4 200/2/4
f 201/2/4 202/2/4 203/2/4
f 203/2/4 202/2/4 204/2/4
f 205/2/4 206/2/4 207/2/4
f 207/2/4 206/2/4 208/2/4
f 209/2/4 210/2/4 211/2/4
f 211/2/4 210/2/4 212/2/4
f 213/2/4 214/2/4 215/2/4
f 215/2/4 214/2/4 216/2/4
f 217/4/4 218/4/4 219/4/4
f 219/4/4 218/4/4 220/4/4
f 220/4/4 218/4/4 221/4/4
f 221/4/4 218/4/4 222/4/4
f 223/4/4 224/4/4 227/4/4
f 225/4/4 226/4/4 227/4/4
f 224/4/4 225/4/4 227/4/4
f 227/4/4 226/4/4 228/4/4
f 229/4/4 230/4/4 231/4/4
f 231/4/4 230/4/4 232/4/4
f 229/4/4 231/4/4 233/4/4
f 231/3/4 232/3/4 234/3/4
f 233/4/4 231/4/4 234/4/4
f 232/4/4 230/4/4 235/4/4
f 234/3/4 232/3/4 235/3/4
f 235/4/4 230/4/4 236/4/4
f 237/4/4 238/4/4 241/4/4
f 238/3/4 239/3/4 241/3/4
f 239/4/4 240/4/4 242/4/4
f 241/3/4 239/3/4 242/3/4
f 237/4/4 241/4/4 243/4/4
f 241/4/4 242/4/4 243/4/4
f 242/4/4 240/4/4 244/4/4
f 243/4/4 242/4/4 244/4/4
f 245/4/4 246/4/4 247/4/4
f 247/4/4 246/4/4 248/4/4
f 247/3/4 248/3/4 249/3/4
f 249/3/4 248/3/4 250/3/4
f 247/3/4 249/3/4 251/3/4
f 249/5/4 250/5/4 251/5/4
f 250/3/4 248/3/4 252/3/4
f 251/5/4 250/5/4 252/5/4
f 245/4/4 247/4/4 253/4/4
f 247/3/4 251/3/4 253/3/4
f 251/3/4 252/3/4 253/3/4
f 252/3/4 248/3/4 254/3/4
f 253/3/4 252/3/4 254/3/4
f 248/4/4 246/4/4 254/4/4
f 245/4/4 253/4/4 255/4/4
f 253/4/4 254/4/4 255/4/4
f 254/4/4 246/4/4 256/4/4
f 255/4/4 254/4/4 256/4/4
f 260/4/5 258/4/5 257/4/5
f 261/4/5 258/4/5 260/4/5
f 263/4/5 260/4/5 259/4/5
f 264/2/5 261/2/5 260/2/5
f 264/4/5 260/4/5 263/4/5
f 265/4/5 262/4/5 261/4/5
f 265/2/5 261/2/5 264/2/5
f 266/4/5 262/4/5 265/4/5
f 268/4/5 263/4/5 259/4/5
f 269/2/5 264/2/5 263/2/5
f 269/4/5 263/4/5 268/4/5
f 270/2/5 264/2/5 269/2/5
f 271/2/5 266/2/5 265/2/5
f 272/4/5 262/4/5 266/4/5
f 272/2/5 266/2/5 271/2/5
f 273/4/5 262/4/5 272/4/5
f 275/4/5 268/4/5 267/4/5
f 276/2/5 269/2/5 268/2/5
f 276/4/5 268/4/5 275/4/5
f 277/2/5 269/2/5 276/2/5
f 280/2/5 273/2/5 272/2/5
f 281/4/5 274/4/5 273/4/5
f 281/2/5 273/2/5 280/2/5
f 282/4/5 274/4/5 281/4/5
f 283/2/5 278/2/5 277/2/5
f 283/4/5 277/4/5 276/4/5
f 284/2/5 278/2/5 283/2/5
f 285/2/5 280/2/5 279/2/5
f 286/4/5 281/4/5 280/4/5
f 286/2/5 280/2/5 285/2/5
f 287/4/5 284/4/5 283/4/5
f 287/4/5 283/4/5 276/4/5
f 288/2/5 285/2/5 284/2/5
f 288/4/5 284/4/5 287/4/5
f 289/4/5 286/4/5 285/4/5
f 289/2/5 285/2/5 288/2/5
f 290/4/5 281/4/5 286/4/5
f 290/4/5 286/4/5 289/4/5
f 291/4/5 289/4/5 288/4/5
f 292/4/5 289/4/5 291/4/5
f 296/2/5 294/2/5 293/2/5
f 297/2/5 294/2/5 296/2/5
f 298/2/5 294/2/5 297/2/5
f 299/2/5 294/2/5 298/2/5
f 301/2/5 296/2/5 295/2/5
f 301/2/5 297/2/5 296/2/5
f 302/2/5 297/2/5 301/2/5
f 303/2/5 300/2/5 299/2/5
f 303/2/5 299/2/5 298/2/5
f 304/2/5 300/2/5 303/2/5
f 305/2/5 301/2/5 295/2/5
f 308/2/5 300/2/5 304/2/5
f 309/2/5 306/2/5 305/2/5
f 309/2/5 305/2/5 295/2/5
f 310/2/5 306/2/5 309/2/5
f 311/2/5 306/2/5 310/2/5
f 312/2/5 308/2/5 307/2/5
f 313/2/5 300/2/5 308/2/5
f 313/2/5 308/2/5 312/2/5
f 314/2/5 300/2/5 313/2/5
f 315/2/5 311/2/5 310/2/5
f 315/2/5 312/2/5 311/2/5
f 315/2/5 313/2/5 312/2/5
f 316/2/5 313/2/5 315/2/5
f 320/2/5 318/2/5 317/2/5
f 321/2/5 318/2/5 320/2/5
f 323/2/5 320/2/5 319/2/5
f 323/2/5 322/2/5 321/2/5
f 323/2/5 321/2/5 320/2/5
f 324/2/5 322/2/5 323/2/5
f 325/2/5 322/2/5 324/2/5
f 326/2/5 322/2/5 325/2/5
f 327/2/5 325/2/5 324/2/5
f 328/2/5 325/2/5 327/2/5
f 329/4/6 330/4/6 332/4/6
f 332/4/6 330/4/6 333/4/6
f 333/4/6 330/4/6 334/4/6
f 334/4/6 330/4/6 335/4/6
f 331/4/6 332/4/6 337/4/6
f 332/4/6 333/4/6 337/4/6
f 333/2/6 334/2/6 338/2/6
f 337/4/6 333/4/6 338/4/6
f 338/2/6 334/2/6 339/2/6
f 339/2/6 334/2/6 340/2/6
f 335/4/6 336/4/6 341/4/6
f 340/2/6 334/2/6 341/2/6
f 334/4/6 335/4/6 341/4/6
f 341/4/6 336/4/6 342/4/6
f 331/4/6 337/4/6 344/4/6
f 338/2/6 339/2/6 345/2/6
f 337/2/6 338/2/6 345/2/6
f 339/1/6 340/1/6 346/1/6
f 345/2/6 339/2/6 346/2/6
f 340/2/6 341/2/6 347/2/6
f 346/1/6 340/1/6 347/1/6
f 341/2/6 342/2/6 347/2/6
f 347/2/6 342/2/6 348/2/6
f 342/4/6 336/4/6 349/4/6
f 348/2/6 342/2/6 349/2/6
f 349/4/6 336/4/6 350/4/6
f 350/4/6 336/4/6 351/4/6
f 343/4/6 344/4/6 353/4/6
f 344/4/6 337/4/6 353/4/6
f 337/2/6 345/2/6 354/2/6
f 353/4/6 337/4/6 354/4/6
f 351/4/6 352/4/6 355/4/6
f 350/4/6 351/4/6 355/4/6
f 348/2/6 349/2/6 355/2/6
f 349/2/6 350/2/6 355/2/6
f 355/4/6 352/4/6 356/4/6
f 354/2/6 345/2/6 357/2/6
f 347/1/6 348/1/6 357/1/6
f 353/2/6 354/2/6 357/2/6
f 345/1/6 346/1/6 357/1/6
f 346/1/6 347/1/6 357/1/6
f 357/1/6 348/1/6 358/1/6
f 358/1/6 348/1/6 359/1/6
f 355/2/6 356/2/6 360/2/6
f 359/1/6 348/1/6 360/1/6
f 348/2/6 355/2/6 360/2/6
f 357/2/6 358/2/6 361/2/6
f 353/2/6 357/2/6 361/2/6
f 358/6/6 359/6/6 362/6/6
f 361/2/6 358/2/6 362/2/6
f 359/2/6 360/2/6 363/2/6
f 362/6/6 359/6/6 363/6/6
f 360/2/6 356/2/6 364/2/6
f 363/2/6 360/2/6 364/2/6
f 343/4/6 353/4/6 365/4/6
f 353/2/6 361/2/6 365/2/6
f 365/2/6 361/2/6 366/2/6
f 364/2/6 356/2/6 367/2/6
f 356/4/6 352/4/6 368/4/6
f 367/2/6 356/2/6 368/2/6
f 343/4/6 365/4/6 369/4/6
f 365/4/6 366/4/6 369/4/6
f 369/4/6 366/4/6 370/4/6
f 362/2/6 363/2/6 371/2/6
f 361/6/6 362/6/6 371/6/6
f 363/6/6 364/6/6 372/6/6
f 371/2/6 363/2/6 372/2/6
f 368/4/6 352/4/6 373/4/6
f 367/4/6 368/4/6 373/4/6
f 373/4/6 352/4/6 374/4/6
f 366/2/6 361/2/6 375/2/6
f 370/4/6 366/4/6 375/4/6
f 361/6/6 371/6/6 376/6/6
f 375/2/6 361/2/6 376/2/6
f 371/6/6 372/6/6 376/6/6
f 364/2/6 367/2/6 377/2/6
f 376/6/6 372/6/6 377/6/6
f 372/6/6 364/6/6 377/6/6
f 367/4/6 373/4/6 378/4/6
f 377/2/6 367/2/6 378/2/6
f 375/4/6 376/4/6 379/4/6
f 370/4/6 375/4/6 379/4/6
f 379/4/6 376/4/6 380/4/6
f 376/2/6 377/2/6 381/2/6
f 380/4/6 376/4/6 381/4/6
f 377/4/6 378/4/6 382/4/6
f 381/2/6 377/2/6 382/2/6
f 382/4/6 378/4/6 383/4/6
f 378/4/6 373/4/6 384/4/6
f 383/4/6 378/4/6 384/4/6
f 382/4/6 383/4/6 385/4/6
f 380/4/6 381/4/6 385/4/6
f 381/4/6 382/4/6 385/4/6
f 385/4/6 383/4/6 386/4/6
